<mxfile host="65bd71144e" pages="2">
    <diagram id="zdY_8qSMHhK2qyOVp2WF" name="FlowchartW">
        <mxGraphModel dx="820" dy="488" grid="1" gridSize="10" guides="1" tooltips="1" connect="1" arrows="1" fold="1" page="1" pageScale="1" pageWidth="850" pageHeight="1100" math="0" shadow="0">
            <root>
                <mxCell id="Fj9Wn4x0rzg0V1KCpG9x-0"/>
                <mxCell id="Fj9Wn4x0rzg0V1KCpG9x-1" parent="Fj9Wn4x0rzg0V1KCpG9x-0"/>
                <mxCell id="Fj9Wn4x0rzg0V1KCpG9x-2" style="edgeStyle=none;html=1;entryX=0.5;entryY=0;entryDx=0;entryDy=0;strokeColor=#FFFFFF;" parent="Fj9Wn4x0rzg0V1KCpG9x-1" source="Fj9Wn4x0rzg0V1KCpG9x-3" target="Fj9Wn4x0rzg0V1KCpG9x-6" edge="1">
                    <mxGeometry relative="1" as="geometry"/>
                </mxCell>
                <mxCell id="Fj9Wn4x0rzg0V1KCpG9x-3" value="&lt;b&gt;START&lt;/b&gt;" style="strokeWidth=2;html=1;shape=mxgraph.flowchart.start_1;whiteSpace=wrap;strokeColor=#FFFFFF;" parent="Fj9Wn4x0rzg0V1KCpG9x-1" vertex="1">
                    <mxGeometry x="400" y="80" width="80" height="40" as="geometry"/>
                </mxCell>
                <mxCell id="Fj9Wn4x0rzg0V1KCpG9x-4" value="&lt;b&gt;STOP&lt;/b&gt;" style="strokeWidth=2;html=1;shape=mxgraph.flowchart.terminator;whiteSpace=wrap;strokeColor=#FFFFFF;" parent="Fj9Wn4x0rzg0V1KCpG9x-1" vertex="1">
                    <mxGeometry x="80" y="680" width="80" height="40" as="geometry"/>
                </mxCell>
                <mxCell id="Fj9Wn4x0rzg0V1KCpG9x-5" style="edgeStyle=none;html=1;entryX=0.5;entryY=0;entryDx=0;entryDy=0;entryPerimeter=0;strokeColor=#FFFFFF;" parent="Fj9Wn4x0rzg0V1KCpG9x-1" source="Fj9Wn4x0rzg0V1KCpG9x-6" target="Fj9Wn4x0rzg0V1KCpG9x-9" edge="1">
                    <mxGeometry relative="1" as="geometry"/>
                </mxCell>
                <mxCell id="Fj9Wn4x0rzg0V1KCpG9x-6" value="&lt;b&gt;Login Page&lt;/b&gt;" style="rounded=0;whiteSpace=wrap;html=1;strokeWidth=2;strokeColor=#FFFFFF;" parent="Fj9Wn4x0rzg0V1KCpG9x-1" vertex="1">
                    <mxGeometry x="400" y="160" width="80" height="40" as="geometry"/>
                </mxCell>
                <mxCell id="Fj9Wn4x0rzg0V1KCpG9x-7" style="edgeStyle=orthogonalEdgeStyle;html=1;entryX=1;entryY=0.5;entryDx=0;entryDy=0;exitX=1;exitY=0.5;exitDx=0;exitDy=0;exitPerimeter=0;strokeColor=#FFFFFF;" parent="Fj9Wn4x0rzg0V1KCpG9x-1" source="Fj9Wn4x0rzg0V1KCpG9x-9" target="Fj9Wn4x0rzg0V1KCpG9x-6" edge="1">
                    <mxGeometry relative="1" as="geometry">
                        <Array as="points">
                            <mxPoint x="560" y="300"/>
                            <mxPoint x="560" y="180"/>
                        </Array>
                    </mxGeometry>
                </mxCell>
                <mxCell id="Fj9Wn4x0rzg0V1KCpG9x-8" style="edgeStyle=orthogonalEdgeStyle;html=1;strokeColor=#FFFFFF;" parent="Fj9Wn4x0rzg0V1KCpG9x-1" source="Fj9Wn4x0rzg0V1KCpG9x-9" target="Fj9Wn4x0rzg0V1KCpG9x-11" edge="1">
                    <mxGeometry relative="1" as="geometry"/>
                </mxCell>
                <mxCell id="Fj9Wn4x0rzg0V1KCpG9x-9" value="&lt;b&gt;Authentication?&lt;/b&gt;" style="strokeWidth=2;html=1;shape=mxgraph.flowchart.decision;whiteSpace=wrap;strokeColor=#FFFFFF;" parent="Fj9Wn4x0rzg0V1KCpG9x-1" vertex="1">
                    <mxGeometry x="380" y="240" width="120" height="120" as="geometry"/>
                </mxCell>
                <mxCell id="Fj9Wn4x0rzg0V1KCpG9x-10" style="edgeStyle=orthogonalEdgeStyle;html=1;entryX=0.5;entryY=0;entryDx=0;entryDy=0;entryPerimeter=0;strokeColor=#FFFFFF;" parent="Fj9Wn4x0rzg0V1KCpG9x-1" source="Fj9Wn4x0rzg0V1KCpG9x-11" target="Fj9Wn4x0rzg0V1KCpG9x-14" edge="1">
                    <mxGeometry relative="1" as="geometry"/>
                </mxCell>
                <mxCell id="Fj9Wn4x0rzg0V1KCpG9x-11" value="&lt;b&gt;Dashboard&lt;/b&gt;" style="rounded=0;whiteSpace=wrap;html=1;strokeWidth=2;strokeColor=#FFFFFF;" parent="Fj9Wn4x0rzg0V1KCpG9x-1" vertex="1">
                    <mxGeometry x="240" y="280" width="80" height="40" as="geometry"/>
                </mxCell>
                <mxCell id="Fj9Wn4x0rzg0V1KCpG9x-12" style="edgeStyle=orthogonalEdgeStyle;html=1;entryX=0.5;entryY=0;entryDx=0;entryDy=0;strokeColor=#FFFFFF;" parent="Fj9Wn4x0rzg0V1KCpG9x-1" source="Fj9Wn4x0rzg0V1KCpG9x-14" target="Fj9Wn4x0rzg0V1KCpG9x-16" edge="1">
                    <mxGeometry relative="1" as="geometry"/>
                </mxCell>
                <mxCell id="Fj9Wn4x0rzg0V1KCpG9x-13" style="edgeStyle=orthogonalEdgeStyle;html=1;entryX=0;entryY=0.5;entryDx=0;entryDy=0;entryPerimeter=0;strokeColor=#FFFFFF;" parent="Fj9Wn4x0rzg0V1KCpG9x-1" source="Fj9Wn4x0rzg0V1KCpG9x-14" target="Fj9Wn4x0rzg0V1KCpG9x-18" edge="1">
                    <mxGeometry relative="1" as="geometry"/>
                </mxCell>
                <mxCell id="Fj9Wn4x0rzg0V1KCpG9x-14" value="&lt;b&gt;Operation&lt;br&gt;Complete?&lt;/b&gt;" style="strokeWidth=2;html=1;shape=mxgraph.flowchart.decision;whiteSpace=wrap;strokeColor=#FFFFFF;" parent="Fj9Wn4x0rzg0V1KCpG9x-1" vertex="1">
                    <mxGeometry x="60" y="440" width="120" height="120" as="geometry"/>
                </mxCell>
                <mxCell id="Fj9Wn4x0rzg0V1KCpG9x-15" style="edgeStyle=orthogonalEdgeStyle;html=1;entryX=0.5;entryY=0;entryDx=0;entryDy=0;entryPerimeter=0;strokeColor=#FFFFFF;" parent="Fj9Wn4x0rzg0V1KCpG9x-1" source="Fj9Wn4x0rzg0V1KCpG9x-16" target="Fj9Wn4x0rzg0V1KCpG9x-4" edge="1">
                    <mxGeometry relative="1" as="geometry"/>
                </mxCell>
                <mxCell id="Fj9Wn4x0rzg0V1KCpG9x-16" value="&lt;b&gt;Log Out&lt;/b&gt;" style="rounded=0;whiteSpace=wrap;html=1;strokeWidth=2;strokeColor=#FFFFFF;" parent="Fj9Wn4x0rzg0V1KCpG9x-1" vertex="1">
                    <mxGeometry x="80" y="600" width="80" height="40" as="geometry"/>
                </mxCell>
                <mxCell id="Fj9Wn4x0rzg0V1KCpG9x-17" style="edgeStyle=orthogonalEdgeStyle;html=1;entryX=0;entryY=0.5;entryDx=0;entryDy=0;strokeColor=#FFFFFF;" parent="Fj9Wn4x0rzg0V1KCpG9x-1" source="Fj9Wn4x0rzg0V1KCpG9x-18" target="Fj9Wn4x0rzg0V1KCpG9x-20" edge="1">
                    <mxGeometry relative="1" as="geometry"/>
                </mxCell>
                <mxCell id="Fj9Wn4x0rzg0V1KCpG9x-18" value="&lt;b&gt;Add &lt;br&gt;Record?&lt;/b&gt;" style="strokeWidth=2;html=1;shape=mxgraph.flowchart.decision;whiteSpace=wrap;strokeColor=#FFFFFF;" parent="Fj9Wn4x0rzg0V1KCpG9x-1" vertex="1">
                    <mxGeometry x="380" y="440" width="120" height="120" as="geometry"/>
                </mxCell>
                <mxCell id="Fj9Wn4x0rzg0V1KCpG9x-19" style="edgeStyle=orthogonalEdgeStyle;html=1;entryX=0.5;entryY=0;entryDx=0;entryDy=0;entryPerimeter=0;strokeColor=#FFFFFF;" parent="Fj9Wn4x0rzg0V1KCpG9x-1" source="Fj9Wn4x0rzg0V1KCpG9x-20" target="Fj9Wn4x0rzg0V1KCpG9x-23" edge="1">
                    <mxGeometry relative="1" as="geometry"/>
                </mxCell>
                <mxCell id="Fj9Wn4x0rzg0V1KCpG9x-20" value="&lt;b&gt;Add Record&lt;/b&gt;" style="rounded=0;whiteSpace=wrap;html=1;strokeWidth=2;strokeColor=#FFFFFF;" parent="Fj9Wn4x0rzg0V1KCpG9x-1" vertex="1">
                    <mxGeometry x="560" y="480" width="80" height="40" as="geometry"/>
                </mxCell>
                <mxCell id="Fj9Wn4x0rzg0V1KCpG9x-21" style="edgeStyle=orthogonalEdgeStyle;html=1;entryX=0.5;entryY=1;entryDx=0;entryDy=0;strokeColor=#FFFFFF;" parent="Fj9Wn4x0rzg0V1KCpG9x-1" source="Fj9Wn4x0rzg0V1KCpG9x-23" target="Fj9Wn4x0rzg0V1KCpG9x-11" edge="1">
                    <mxGeometry relative="1" as="geometry"/>
                </mxCell>
                <mxCell id="Fj9Wn4x0rzg0V1KCpG9x-22" style="edgeStyle=orthogonalEdgeStyle;html=1;entryX=0;entryY=0.5;entryDx=0;entryDy=0;strokeColor=#FFFFFF;" parent="Fj9Wn4x0rzg0V1KCpG9x-1" source="Fj9Wn4x0rzg0V1KCpG9x-23" target="Fj9Wn4x0rzg0V1KCpG9x-25" edge="1">
                    <mxGeometry relative="1" as="geometry"/>
                </mxCell>
                <mxCell id="Fj9Wn4x0rzg0V1KCpG9x-23" value="&lt;b&gt;Found&amp;nbsp;&lt;br&gt;Mistake?&lt;/b&gt;" style="strokeWidth=2;html=1;shape=mxgraph.flowchart.decision;whiteSpace=wrap;strokeColor=#FFFFFF;" parent="Fj9Wn4x0rzg0V1KCpG9x-1" vertex="1">
                    <mxGeometry x="540" y="560" width="120" height="120" as="geometry"/>
                </mxCell>
                <mxCell id="Fj9Wn4x0rzg0V1KCpG9x-24" style="edgeStyle=orthogonalEdgeStyle;html=1;entryX=0.5;entryY=1;entryDx=0;entryDy=0;entryPerimeter=0;strokeColor=#FFFFFF;" parent="Fj9Wn4x0rzg0V1KCpG9x-1" source="Fj9Wn4x0rzg0V1KCpG9x-25" target="Fj9Wn4x0rzg0V1KCpG9x-28" edge="1">
                    <mxGeometry relative="1" as="geometry"/>
                </mxCell>
                <mxCell id="Fj9Wn4x0rzg0V1KCpG9x-25" value="&lt;b&gt;Edit Record&lt;/b&gt;" style="rounded=0;whiteSpace=wrap;html=1;strokeWidth=2;strokeColor=#FFFFFF;" parent="Fj9Wn4x0rzg0V1KCpG9x-1" vertex="1">
                    <mxGeometry x="720" y="600" width="80" height="40" as="geometry"/>
                </mxCell>
                <mxCell id="Fj9Wn4x0rzg0V1KCpG9x-26" style="edgeStyle=orthogonalEdgeStyle;html=1;entryX=0.5;entryY=1;entryDx=0;entryDy=0;exitX=0;exitY=0.5;exitDx=0;exitDy=0;exitPerimeter=0;strokeColor=#FFFFFF;" parent="Fj9Wn4x0rzg0V1KCpG9x-1" source="Fj9Wn4x0rzg0V1KCpG9x-28" target="Fj9Wn4x0rzg0V1KCpG9x-11" edge="1">
                    <mxGeometry relative="1" as="geometry">
                        <Array as="points">
                            <mxPoint x="660" y="500"/>
                            <mxPoint x="660" y="410"/>
                            <mxPoint x="280" y="410"/>
                        </Array>
                    </mxGeometry>
                </mxCell>
                <mxCell id="Fj9Wn4x0rzg0V1KCpG9x-27" style="edgeStyle=orthogonalEdgeStyle;html=1;entryX=0.5;entryY=1;entryDx=0;entryDy=0;strokeColor=#FFFFFF;" parent="Fj9Wn4x0rzg0V1KCpG9x-1" source="Fj9Wn4x0rzg0V1KCpG9x-28" target="Fj9Wn4x0rzg0V1KCpG9x-30" edge="1">
                    <mxGeometry relative="1" as="geometry"/>
                </mxCell>
                <mxCell id="Fj9Wn4x0rzg0V1KCpG9x-28" value="&lt;b&gt;Record&lt;br&gt;Required?&lt;/b&gt;" style="strokeWidth=2;html=1;shape=mxgraph.flowchart.decision;whiteSpace=wrap;strokeColor=#FFFFFF;" parent="Fj9Wn4x0rzg0V1KCpG9x-1" vertex="1">
                    <mxGeometry x="700" y="440" width="120" height="120" as="geometry"/>
                </mxCell>
                <mxCell id="Fj9Wn4x0rzg0V1KCpG9x-29" style="edgeStyle=orthogonalEdgeStyle;html=1;entryX=0.5;entryY=1;entryDx=0;entryDy=0;strokeColor=#FFFFFF;" parent="Fj9Wn4x0rzg0V1KCpG9x-1" source="Fj9Wn4x0rzg0V1KCpG9x-30" target="Fj9Wn4x0rzg0V1KCpG9x-11" edge="1">
                    <mxGeometry relative="1" as="geometry"/>
                </mxCell>
                <mxCell id="Fj9Wn4x0rzg0V1KCpG9x-30" value="&lt;b&gt;Delete Record&lt;/b&gt;" style="rounded=0;whiteSpace=wrap;html=1;strokeWidth=2;strokeColor=#FFFFFF;" parent="Fj9Wn4x0rzg0V1KCpG9x-1" vertex="1">
                    <mxGeometry x="700" y="360" width="120" height="40" as="geometry"/>
                </mxCell>
                <mxCell id="Fj9Wn4x0rzg0V1KCpG9x-31" value="&lt;b&gt;False&lt;/b&gt;" style="text;html=1;align=center;verticalAlign=middle;resizable=0;points=[];autosize=1;strokeColor=none;fillColor=none;fontColor=#FFFFFF;" parent="Fj9Wn4x0rzg0V1KCpG9x-1" vertex="1">
                    <mxGeometry x="565" y="220" width="50" height="20" as="geometry"/>
                </mxCell>
                <mxCell id="Fj9Wn4x0rzg0V1KCpG9x-32" value="&lt;b&gt;True&lt;/b&gt;" style="text;html=1;align=center;verticalAlign=middle;resizable=0;points=[];autosize=1;strokeColor=none;fillColor=none;fontColor=#FFFFFF;" parent="Fj9Wn4x0rzg0V1KCpG9x-1" vertex="1">
                    <mxGeometry x="330" y="280" width="40" height="20" as="geometry"/>
                </mxCell>
                <mxCell id="Fj9Wn4x0rzg0V1KCpG9x-33" value="&lt;b&gt;True&lt;/b&gt;" style="text;html=1;align=center;verticalAlign=middle;resizable=0;points=[];autosize=1;strokeColor=none;fillColor=none;fontColor=#FFFFFF;" parent="Fj9Wn4x0rzg0V1KCpG9x-1" vertex="1">
                    <mxGeometry x="120" y="570" width="40" height="20" as="geometry"/>
                </mxCell>
                <mxCell id="Fj9Wn4x0rzg0V1KCpG9x-34" value="&lt;b&gt;False&lt;/b&gt;" style="text;html=1;align=center;verticalAlign=middle;resizable=0;points=[];autosize=1;strokeColor=none;fillColor=none;fontColor=#FFFFFF;" parent="Fj9Wn4x0rzg0V1KCpG9x-1" vertex="1">
                    <mxGeometry x="320" y="480" width="50" height="20" as="geometry"/>
                </mxCell>
                <mxCell id="Fj9Wn4x0rzg0V1KCpG9x-35" value="&lt;b&gt;False&lt;/b&gt;" style="text;html=1;align=center;verticalAlign=middle;resizable=0;points=[];autosize=1;strokeColor=none;fillColor=none;fontColor=#FFFFFF;" parent="Fj9Wn4x0rzg0V1KCpG9x-1" vertex="1">
                    <mxGeometry x="320" y="600" width="50" height="20" as="geometry"/>
                </mxCell>
                <mxCell id="Fj9Wn4x0rzg0V1KCpG9x-36" value="&lt;b&gt;True&lt;/b&gt;" style="text;html=1;align=center;verticalAlign=middle;resizable=0;points=[];autosize=1;strokeColor=none;fillColor=none;fontColor=#FFFFFF;" parent="Fj9Wn4x0rzg0V1KCpG9x-1" vertex="1">
                    <mxGeometry x="670" y="600" width="40" height="20" as="geometry"/>
                </mxCell>
                <mxCell id="Fj9Wn4x0rzg0V1KCpG9x-37" value="&lt;b&gt;False&lt;/b&gt;" style="text;html=1;align=center;verticalAlign=middle;resizable=0;points=[];autosize=1;strokeColor=none;fillColor=none;fontColor=#FFFFFF;" parent="Fj9Wn4x0rzg0V1KCpG9x-1" vertex="1">
                    <mxGeometry x="760" y="410" width="50" height="20" as="geometry"/>
                </mxCell>
                <mxCell id="Fj9Wn4x0rzg0V1KCpG9x-38" value="&lt;b&gt;True&lt;/b&gt;" style="text;html=1;align=center;verticalAlign=middle;resizable=0;points=[];autosize=1;strokeColor=none;fillColor=none;fontColor=#FFFFFF;" parent="Fj9Wn4x0rzg0V1KCpG9x-1" vertex="1">
                    <mxGeometry x="320" y="390" width="40" height="20" as="geometry"/>
                </mxCell>
            </root>
        </mxGraphModel>
    </diagram>
    <diagram id="pzp5F98lcEAV8l_yo3-G" name="FlowChart">
        <mxGraphModel dx="820" dy="488" grid="1" gridSize="10" guides="1" tooltips="1" connect="1" arrows="1" fold="1" page="1" pageScale="1" pageWidth="850" pageHeight="1100" math="0" shadow="0">
            <root>
                <mxCell id="nVx-LndPiBWBaImcnb7H-0"/>
                <mxCell id="nVx-LndPiBWBaImcnb7H-1" parent="nVx-LndPiBWBaImcnb7H-0"/>
                <mxCell id="nVx-LndPiBWBaImcnb7H-16" style="edgeStyle=none;html=1;entryX=0.5;entryY=0;entryDx=0;entryDy=0;" parent="nVx-LndPiBWBaImcnb7H-1" source="nVx-LndPiBWBaImcnb7H-2" target="nVx-LndPiBWBaImcnb7H-5" edge="1">
                    <mxGeometry relative="1" as="geometry"/>
                </mxCell>
                <mxCell id="nVx-LndPiBWBaImcnb7H-2" value="&lt;b&gt;START&lt;/b&gt;" style="strokeWidth=2;html=1;shape=mxgraph.flowchart.start_1;whiteSpace=wrap;" parent="nVx-LndPiBWBaImcnb7H-1" vertex="1">
                    <mxGeometry x="400" y="80" width="80" height="40" as="geometry"/>
                </mxCell>
                <mxCell id="nVx-LndPiBWBaImcnb7H-4" value="&lt;b&gt;STOP&lt;/b&gt;" style="strokeWidth=2;html=1;shape=mxgraph.flowchart.terminator;whiteSpace=wrap;" parent="nVx-LndPiBWBaImcnb7H-1" vertex="1">
                    <mxGeometry x="80" y="680" width="80" height="40" as="geometry"/>
                </mxCell>
                <mxCell id="nVx-LndPiBWBaImcnb7H-17" style="edgeStyle=none;html=1;entryX=0.5;entryY=0;entryDx=0;entryDy=0;entryPerimeter=0;" parent="nVx-LndPiBWBaImcnb7H-1" source="nVx-LndPiBWBaImcnb7H-5" target="nVx-LndPiBWBaImcnb7H-6" edge="1">
                    <mxGeometry relative="1" as="geometry"/>
                </mxCell>
                <mxCell id="nVx-LndPiBWBaImcnb7H-5" value="&lt;b&gt;Login Page&lt;/b&gt;" style="rounded=0;whiteSpace=wrap;html=1;strokeWidth=2;" parent="nVx-LndPiBWBaImcnb7H-1" vertex="1">
                    <mxGeometry x="400" y="160" width="80" height="40" as="geometry"/>
                </mxCell>
                <mxCell id="nVx-LndPiBWBaImcnb7H-18" style="edgeStyle=orthogonalEdgeStyle;html=1;entryX=1;entryY=0.5;entryDx=0;entryDy=0;exitX=1;exitY=0.5;exitDx=0;exitDy=0;exitPerimeter=0;" parent="nVx-LndPiBWBaImcnb7H-1" source="nVx-LndPiBWBaImcnb7H-6" target="nVx-LndPiBWBaImcnb7H-5" edge="1">
                    <mxGeometry relative="1" as="geometry">
                        <Array as="points">
                            <mxPoint x="560" y="300"/>
                            <mxPoint x="560" y="180"/>
                        </Array>
                    </mxGeometry>
                </mxCell>
                <mxCell id="nVx-LndPiBWBaImcnb7H-20" style="edgeStyle=orthogonalEdgeStyle;html=1;" parent="nVx-LndPiBWBaImcnb7H-1" source="nVx-LndPiBWBaImcnb7H-6" target="nVx-LndPiBWBaImcnb7H-7" edge="1">
                    <mxGeometry relative="1" as="geometry"/>
                </mxCell>
                <mxCell id="nVx-LndPiBWBaImcnb7H-6" value="&lt;b&gt;Authentication?&lt;/b&gt;" style="strokeWidth=2;html=1;shape=mxgraph.flowchart.decision;whiteSpace=wrap;" parent="nVx-LndPiBWBaImcnb7H-1" vertex="1">
                    <mxGeometry x="380" y="240" width="120" height="120" as="geometry"/>
                </mxCell>
                <mxCell id="nVx-LndPiBWBaImcnb7H-22" style="edgeStyle=orthogonalEdgeStyle;html=1;entryX=0.5;entryY=0;entryDx=0;entryDy=0;entryPerimeter=0;" parent="nVx-LndPiBWBaImcnb7H-1" source="nVx-LndPiBWBaImcnb7H-7" target="nVx-LndPiBWBaImcnb7H-8" edge="1">
                    <mxGeometry relative="1" as="geometry"/>
                </mxCell>
                <mxCell id="nVx-LndPiBWBaImcnb7H-7" value="&lt;b&gt;Dashboard&lt;/b&gt;" style="rounded=0;whiteSpace=wrap;html=1;strokeWidth=2;" parent="nVx-LndPiBWBaImcnb7H-1" vertex="1">
                    <mxGeometry x="240" y="280" width="80" height="40" as="geometry"/>
                </mxCell>
                <mxCell id="nVx-LndPiBWBaImcnb7H-24" style="edgeStyle=orthogonalEdgeStyle;html=1;entryX=0.5;entryY=0;entryDx=0;entryDy=0;" parent="nVx-LndPiBWBaImcnb7H-1" source="nVx-LndPiBWBaImcnb7H-8" target="nVx-LndPiBWBaImcnb7H-9" edge="1">
                    <mxGeometry relative="1" as="geometry"/>
                </mxCell>
                <mxCell id="nVx-LndPiBWBaImcnb7H-27" style="edgeStyle=orthogonalEdgeStyle;html=1;entryX=0;entryY=0.5;entryDx=0;entryDy=0;entryPerimeter=0;" parent="nVx-LndPiBWBaImcnb7H-1" source="nVx-LndPiBWBaImcnb7H-8" target="nVx-LndPiBWBaImcnb7H-10" edge="1">
                    <mxGeometry relative="1" as="geometry"/>
                </mxCell>
                <mxCell id="nVx-LndPiBWBaImcnb7H-8" value="&lt;b&gt;Operation&lt;br&gt;Complete?&lt;/b&gt;" style="strokeWidth=2;html=1;shape=mxgraph.flowchart.decision;whiteSpace=wrap;" parent="nVx-LndPiBWBaImcnb7H-1" vertex="1">
                    <mxGeometry x="60" y="440" width="120" height="120" as="geometry"/>
                </mxCell>
                <mxCell id="nVx-LndPiBWBaImcnb7H-26" style="edgeStyle=orthogonalEdgeStyle;html=1;entryX=0.5;entryY=0;entryDx=0;entryDy=0;entryPerimeter=0;" parent="nVx-LndPiBWBaImcnb7H-1" source="nVx-LndPiBWBaImcnb7H-9" target="nVx-LndPiBWBaImcnb7H-4" edge="1">
                    <mxGeometry relative="1" as="geometry"/>
                </mxCell>
                <mxCell id="nVx-LndPiBWBaImcnb7H-9" value="&lt;b&gt;Log Out&lt;/b&gt;" style="rounded=0;whiteSpace=wrap;html=1;strokeWidth=2;" parent="nVx-LndPiBWBaImcnb7H-1" vertex="1">
                    <mxGeometry x="80" y="600" width="80" height="40" as="geometry"/>
                </mxCell>
                <mxCell id="nVx-LndPiBWBaImcnb7H-30" style="edgeStyle=orthogonalEdgeStyle;html=1;entryX=0;entryY=0.5;entryDx=0;entryDy=0;" parent="nVx-LndPiBWBaImcnb7H-1" source="nVx-LndPiBWBaImcnb7H-10" target="nVx-LndPiBWBaImcnb7H-11" edge="1">
                    <mxGeometry relative="1" as="geometry"/>
                </mxCell>
                <mxCell id="nVx-LndPiBWBaImcnb7H-10" value="&lt;b&gt;Add &lt;br&gt;Record?&lt;/b&gt;" style="strokeWidth=2;html=1;shape=mxgraph.flowchart.decision;whiteSpace=wrap;" parent="nVx-LndPiBWBaImcnb7H-1" vertex="1">
                    <mxGeometry x="380" y="440" width="120" height="120" as="geometry"/>
                </mxCell>
                <mxCell id="nVx-LndPiBWBaImcnb7H-31" style="edgeStyle=orthogonalEdgeStyle;html=1;entryX=0.5;entryY=0;entryDx=0;entryDy=0;entryPerimeter=0;" parent="nVx-LndPiBWBaImcnb7H-1" source="nVx-LndPiBWBaImcnb7H-11" target="nVx-LndPiBWBaImcnb7H-12" edge="1">
                    <mxGeometry relative="1" as="geometry"/>
                </mxCell>
                <mxCell id="nVx-LndPiBWBaImcnb7H-11" value="&lt;b&gt;Add Record&lt;/b&gt;" style="rounded=0;whiteSpace=wrap;html=1;strokeWidth=2;" parent="nVx-LndPiBWBaImcnb7H-1" vertex="1">
                    <mxGeometry x="560" y="480" width="80" height="40" as="geometry"/>
                </mxCell>
                <mxCell id="nVx-LndPiBWBaImcnb7H-32" style="edgeStyle=orthogonalEdgeStyle;html=1;entryX=0.5;entryY=1;entryDx=0;entryDy=0;" parent="nVx-LndPiBWBaImcnb7H-1" source="nVx-LndPiBWBaImcnb7H-12" target="nVx-LndPiBWBaImcnb7H-7" edge="1">
                    <mxGeometry relative="1" as="geometry"/>
                </mxCell>
                <mxCell id="nVx-LndPiBWBaImcnb7H-34" style="edgeStyle=orthogonalEdgeStyle;html=1;entryX=0;entryY=0.5;entryDx=0;entryDy=0;" parent="nVx-LndPiBWBaImcnb7H-1" source="nVx-LndPiBWBaImcnb7H-12" target="nVx-LndPiBWBaImcnb7H-13" edge="1">
                    <mxGeometry relative="1" as="geometry"/>
                </mxCell>
                <mxCell id="nVx-LndPiBWBaImcnb7H-12" value="&lt;b&gt;Found&amp;nbsp;&lt;br&gt;Mistake?&lt;/b&gt;" style="strokeWidth=2;html=1;shape=mxgraph.flowchart.decision;whiteSpace=wrap;" parent="nVx-LndPiBWBaImcnb7H-1" vertex="1">
                    <mxGeometry x="540" y="560" width="120" height="120" as="geometry"/>
                </mxCell>
                <mxCell id="nVx-LndPiBWBaImcnb7H-36" style="edgeStyle=orthogonalEdgeStyle;html=1;entryX=0.5;entryY=1;entryDx=0;entryDy=0;entryPerimeter=0;" parent="nVx-LndPiBWBaImcnb7H-1" source="nVx-LndPiBWBaImcnb7H-13" target="nVx-LndPiBWBaImcnb7H-14" edge="1">
                    <mxGeometry relative="1" as="geometry"/>
                </mxCell>
                <mxCell id="nVx-LndPiBWBaImcnb7H-13" value="&lt;b&gt;Edit Record&lt;/b&gt;" style="rounded=0;whiteSpace=wrap;html=1;strokeWidth=2;" parent="nVx-LndPiBWBaImcnb7H-1" vertex="1">
                    <mxGeometry x="720" y="600" width="80" height="40" as="geometry"/>
                </mxCell>
                <mxCell id="nVx-LndPiBWBaImcnb7H-37" style="edgeStyle=orthogonalEdgeStyle;html=1;entryX=0.5;entryY=1;entryDx=0;entryDy=0;exitX=0;exitY=0.5;exitDx=0;exitDy=0;exitPerimeter=0;" parent="nVx-LndPiBWBaImcnb7H-1" source="nVx-LndPiBWBaImcnb7H-14" target="nVx-LndPiBWBaImcnb7H-7" edge="1">
                    <mxGeometry relative="1" as="geometry">
                        <Array as="points">
                            <mxPoint x="660" y="500"/>
                            <mxPoint x="660" y="410"/>
                            <mxPoint x="280" y="410"/>
                        </Array>
                    </mxGeometry>
                </mxCell>
                <mxCell id="nVx-LndPiBWBaImcnb7H-39" style="edgeStyle=orthogonalEdgeStyle;html=1;entryX=0.5;entryY=1;entryDx=0;entryDy=0;" parent="nVx-LndPiBWBaImcnb7H-1" source="nVx-LndPiBWBaImcnb7H-14" target="nVx-LndPiBWBaImcnb7H-15" edge="1">
                    <mxGeometry relative="1" as="geometry"/>
                </mxCell>
                <mxCell id="nVx-LndPiBWBaImcnb7H-14" value="&lt;b&gt;Record&lt;br&gt;Required?&lt;/b&gt;" style="strokeWidth=2;html=1;shape=mxgraph.flowchart.decision;whiteSpace=wrap;" parent="nVx-LndPiBWBaImcnb7H-1" vertex="1">
                    <mxGeometry x="700" y="440" width="120" height="120" as="geometry"/>
                </mxCell>
                <mxCell id="nVx-LndPiBWBaImcnb7H-40" style="edgeStyle=orthogonalEdgeStyle;html=1;entryX=0.5;entryY=1;entryDx=0;entryDy=0;" parent="nVx-LndPiBWBaImcnb7H-1" source="nVx-LndPiBWBaImcnb7H-15" target="nVx-LndPiBWBaImcnb7H-7" edge="1">
                    <mxGeometry relative="1" as="geometry"/>
                </mxCell>
                <mxCell id="nVx-LndPiBWBaImcnb7H-15" value="&lt;b&gt;Delete Record&lt;/b&gt;" style="rounded=0;whiteSpace=wrap;html=1;strokeWidth=2;" parent="nVx-LndPiBWBaImcnb7H-1" vertex="1">
                    <mxGeometry x="700" y="360" width="120" height="40" as="geometry"/>
                </mxCell>
                <mxCell id="nVx-LndPiBWBaImcnb7H-19" value="&lt;b&gt;False&lt;/b&gt;" style="text;html=1;align=center;verticalAlign=middle;resizable=0;points=[];autosize=1;strokeColor=none;fillColor=none;" parent="nVx-LndPiBWBaImcnb7H-1" vertex="1">
                    <mxGeometry x="565" y="220" width="50" height="20" as="geometry"/>
                </mxCell>
                <mxCell id="nVx-LndPiBWBaImcnb7H-21" value="&lt;b&gt;True&lt;/b&gt;" style="text;html=1;align=center;verticalAlign=middle;resizable=0;points=[];autosize=1;strokeColor=none;fillColor=none;" parent="nVx-LndPiBWBaImcnb7H-1" vertex="1">
                    <mxGeometry x="330" y="280" width="40" height="20" as="geometry"/>
                </mxCell>
                <mxCell id="nVx-LndPiBWBaImcnb7H-25" value="&lt;b&gt;True&lt;/b&gt;" style="text;html=1;align=center;verticalAlign=middle;resizable=0;points=[];autosize=1;strokeColor=none;fillColor=none;" parent="nVx-LndPiBWBaImcnb7H-1" vertex="1">
                    <mxGeometry x="120" y="570" width="40" height="20" as="geometry"/>
                </mxCell>
                <mxCell id="nVx-LndPiBWBaImcnb7H-28" value="&lt;b&gt;False&lt;/b&gt;" style="text;html=1;align=center;verticalAlign=middle;resizable=0;points=[];autosize=1;strokeColor=none;fillColor=none;" parent="nVx-LndPiBWBaImcnb7H-1" vertex="1">
                    <mxGeometry x="320" y="480" width="50" height="20" as="geometry"/>
                </mxCell>
                <mxCell id="nVx-LndPiBWBaImcnb7H-33" value="&lt;b&gt;False&lt;/b&gt;" style="text;html=1;align=center;verticalAlign=middle;resizable=0;points=[];autosize=1;strokeColor=none;fillColor=none;" parent="nVx-LndPiBWBaImcnb7H-1" vertex="1">
                    <mxGeometry x="320" y="600" width="50" height="20" as="geometry"/>
                </mxCell>
                <mxCell id="nVx-LndPiBWBaImcnb7H-35" value="&lt;b&gt;True&lt;/b&gt;" style="text;html=1;align=center;verticalAlign=middle;resizable=0;points=[];autosize=1;strokeColor=none;fillColor=none;" parent="nVx-LndPiBWBaImcnb7H-1" vertex="1">
                    <mxGeometry x="670" y="600" width="40" height="20" as="geometry"/>
                </mxCell>
                <mxCell id="nVx-LndPiBWBaImcnb7H-38" value="&lt;b&gt;False&lt;/b&gt;" style="text;html=1;align=center;verticalAlign=middle;resizable=0;points=[];autosize=1;strokeColor=none;fillColor=none;" parent="nVx-LndPiBWBaImcnb7H-1" vertex="1">
                    <mxGeometry x="760" y="410" width="50" height="20" as="geometry"/>
                </mxCell>
                <mxCell id="nVx-LndPiBWBaImcnb7H-41" value="&lt;b&gt;True&lt;/b&gt;" style="text;html=1;align=center;verticalAlign=middle;resizable=0;points=[];autosize=1;strokeColor=none;fillColor=none;" parent="nVx-LndPiBWBaImcnb7H-1" vertex="1">
                    <mxGeometry x="320" y="390" width="40" height="20" as="geometry"/>
                </mxCell>
            </root>
        </mxGraphModel>
    </diagram>
    <diagram id="flMZa_xKzqfJPFKXLGqJ" name="ER-Diagram">
        <mxGraphModel dx="865" dy="488" grid="1" gridSize="10" guides="1" tooltips="1" connect="1" arrows="1" fold="1" page="1" pageScale="1" pageWidth="1169" pageHeight="827" math="0" shadow="0">
            <root>
                <mxCell id="0"/>
                <mxCell id="1" parent="0"/>
                <mxCell id="42" style="edgeStyle=orthogonalEdgeStyle;html=1;entryX=0;entryY=0.5;entryDx=0;entryDy=0;endArrow=none;endFill=0;" parent="1" source="q89Y1sPKiIkgIvJ2mbNi-22" target="40" edge="1">
                    <mxGeometry relative="1" as="geometry"/>
                </mxCell>
                <mxCell id="q89Y1sPKiIkgIvJ2mbNi-22" value="&lt;b&gt;ViEWS&lt;/b&gt;" style="shape=rhombus;perimeter=rhombusPerimeter;whiteSpace=wrap;html=1;align=center;" parent="1" vertex="1">
                    <mxGeometry x="460" y="190" width="120" height="60" as="geometry"/>
                </mxCell>
                <mxCell id="29" style="edgeStyle=orthogonalEdgeStyle;html=1;entryX=0.5;entryY=1;entryDx=0;entryDy=0;endArrow=none;endFill=0;exitX=1;exitY=0.5;exitDx=0;exitDy=0;" parent="1" source="q89Y1sPKiIkgIvJ2mbNi-33" target="q89Y1sPKiIkgIvJ2mbNi-2" edge="1">
                    <mxGeometry relative="1" as="geometry"/>
                </mxCell>
                <mxCell id="q89Y1sPKiIkgIvJ2mbNi-33" value="&lt;b&gt;Faculty&lt;/b&gt;" style="ellipse;whiteSpace=wrap;html=1;align=center;" parent="1" vertex="1">
                    <mxGeometry x="180" y="260" width="100" height="40" as="geometry"/>
                </mxCell>
                <mxCell id="33" style="edgeStyle=orthogonalEdgeStyle;html=1;entryX=0.5;entryY=1;entryDx=0;entryDy=0;endArrow=none;endFill=0;exitX=0;exitY=0.5;exitDx=0;exitDy=0;" parent="1" source="q89Y1sPKiIkgIvJ2mbNi-35" target="q89Y1sPKiIkgIvJ2mbNi-2" edge="1">
                    <mxGeometry relative="1" as="geometry"/>
                </mxCell>
                <mxCell id="q89Y1sPKiIkgIvJ2mbNi-35" value="&lt;b&gt;Program&lt;/b&gt;" style="ellipse;whiteSpace=wrap;html=1;align=center;" parent="1" vertex="1">
                    <mxGeometry x="320" y="320" width="100" height="40" as="geometry"/>
                </mxCell>
                <mxCell id="q89Y1sPKiIkgIvJ2mbNi-42" style="edgeStyle=orthogonalEdgeStyle;rounded=0;orthogonalLoop=1;jettySize=auto;html=1;entryX=0;entryY=0.5;entryDx=0;entryDy=0;endArrow=none;endFill=0;exitX=1;exitY=0.5;exitDx=0;exitDy=0;" parent="1" source="q89Y1sPKiIkgIvJ2mbNi-2" target="q89Y1sPKiIkgIvJ2mbNi-22" edge="1">
                    <mxGeometry relative="1" as="geometry"/>
                </mxCell>
                <mxCell id="q89Y1sPKiIkgIvJ2mbNi-2" value="&lt;b&gt;STUDENT&lt;/b&gt;" style="whiteSpace=wrap;html=1;align=center;" parent="1" vertex="1">
                    <mxGeometry x="240" y="200" width="120" height="40" as="geometry"/>
                </mxCell>
                <mxCell id="12" style="edgeStyle=orthogonalEdgeStyle;html=1;entryX=0.5;entryY=0;entryDx=0;entryDy=0;endArrow=none;endFill=0;exitX=0;exitY=0.5;exitDx=0;exitDy=0;" parent="1" source="q89Y1sPKiIkgIvJ2mbNi-3" target="q89Y1sPKiIkgIvJ2mbNi-2" edge="1">
                    <mxGeometry relative="1" as="geometry"/>
                </mxCell>
                <mxCell id="q89Y1sPKiIkgIvJ2mbNi-3" value="&lt;b&gt;RegNo&lt;/b&gt;" style="ellipse;whiteSpace=wrap;html=1;align=center;fontStyle=4;" parent="1" vertex="1">
                    <mxGeometry x="360" y="160" width="100" height="40" as="geometry"/>
                </mxCell>
                <mxCell id="13" style="edgeStyle=orthogonalEdgeStyle;html=1;entryX=0.5;entryY=0;entryDx=0;entryDy=0;endArrow=none;endFill=0;exitX=0;exitY=0.5;exitDx=0;exitDy=0;" parent="1" source="q89Y1sPKiIkgIvJ2mbNi-4" target="q89Y1sPKiIkgIvJ2mbNi-2" edge="1">
                    <mxGeometry relative="1" as="geometry"/>
                </mxCell>
                <mxCell id="q89Y1sPKiIkgIvJ2mbNi-4" value="&lt;b&gt;FirstName&lt;/b&gt;" style="ellipse;whiteSpace=wrap;html=1;align=center;" parent="1" vertex="1">
                    <mxGeometry x="350" y="110" width="100" height="40" as="geometry"/>
                </mxCell>
                <mxCell id="16" style="edgeStyle=orthogonalEdgeStyle;html=1;entryX=0.5;entryY=0;entryDx=0;entryDy=0;endArrow=none;endFill=0;exitX=0.5;exitY=1;exitDx=0;exitDy=0;" parent="1" source="q89Y1sPKiIkgIvJ2mbNi-5" target="q89Y1sPKiIkgIvJ2mbNi-2" edge="1">
                    <mxGeometry relative="1" as="geometry"/>
                </mxCell>
                <mxCell id="q89Y1sPKiIkgIvJ2mbNi-5" value="&lt;b&gt;LastName&lt;/b&gt;" style="ellipse;whiteSpace=wrap;html=1;align=center;" parent="1" vertex="1">
                    <mxGeometry x="250" y="10" width="100" height="40" as="geometry"/>
                </mxCell>
                <mxCell id="15" style="edgeStyle=orthogonalEdgeStyle;html=1;entryX=0.5;entryY=0;entryDx=0;entryDy=0;endArrow=none;endFill=0;exitX=1;exitY=0.5;exitDx=0;exitDy=0;" parent="1" source="q89Y1sPKiIkgIvJ2mbNi-6" target="q89Y1sPKiIkgIvJ2mbNi-2" edge="1">
                    <mxGeometry relative="1" as="geometry">
                        <mxPoint x="263" y="60" as="sourcePoint"/>
                    </mxGeometry>
                </mxCell>
                <mxCell id="q89Y1sPKiIkgIvJ2mbNi-6" value="&lt;b&gt;Gender&lt;/b&gt;" style="ellipse;whiteSpace=wrap;html=1;align=center;" parent="1" vertex="1">
                    <mxGeometry x="160" y="40" width="100" height="40" as="geometry"/>
                </mxCell>
                <mxCell id="17" style="edgeStyle=orthogonalEdgeStyle;html=1;entryX=0.5;entryY=0;entryDx=0;entryDy=0;endArrow=none;endFill=0;exitX=1;exitY=0.5;exitDx=0;exitDy=0;" parent="1" source="q89Y1sPKiIkgIvJ2mbNi-7" target="q89Y1sPKiIkgIvJ2mbNi-2" edge="1">
                    <mxGeometry relative="1" as="geometry"/>
                </mxCell>
                <mxCell id="q89Y1sPKiIkgIvJ2mbNi-7" value="&lt;b&gt;PermanentAddress&lt;/b&gt;" style="ellipse;whiteSpace=wrap;html=1;align=center;" parent="1" vertex="1">
                    <mxGeometry x="100" y="90" width="130" height="40" as="geometry"/>
                </mxCell>
                <mxCell id="18" style="edgeStyle=orthogonalEdgeStyle;html=1;entryX=0.5;entryY=0;entryDx=0;entryDy=0;endArrow=none;endFill=0;exitX=1;exitY=0.5;exitDx=0;exitDy=0;" parent="1" source="q89Y1sPKiIkgIvJ2mbNi-8" target="q89Y1sPKiIkgIvJ2mbNi-2" edge="1">
                    <mxGeometry relative="1" as="geometry"/>
                </mxCell>
                <mxCell id="q89Y1sPKiIkgIvJ2mbNi-8" value="&lt;b&gt;Mobile&lt;/b&gt;" style="ellipse;whiteSpace=wrap;html=1;align=center;" parent="1" vertex="1">
                    <mxGeometry x="140" y="160" width="100" height="40" as="geometry"/>
                </mxCell>
                <mxCell id="19" style="edgeStyle=orthogonalEdgeStyle;html=1;entryX=0;entryY=0.5;entryDx=0;entryDy=0;endArrow=none;endFill=0;exitX=1;exitY=0.5;exitDx=0;exitDy=0;" parent="1" source="q89Y1sPKiIkgIvJ2mbNi-9" target="q89Y1sPKiIkgIvJ2mbNi-2" edge="1">
                    <mxGeometry relative="1" as="geometry">
                        <mxPoint x="150" y="220" as="sourcePoint"/>
                    </mxGeometry>
                </mxCell>
                <mxCell id="q89Y1sPKiIkgIvJ2mbNi-9" value="&lt;b&gt;Email&lt;/b&gt;" style="ellipse;whiteSpace=wrap;html=1;align=center;" parent="1" vertex="1">
                    <mxGeometry x="30" y="200" width="100" height="40" as="geometry"/>
                </mxCell>
                <mxCell id="14" style="edgeStyle=orthogonalEdgeStyle;html=1;endArrow=none;endFill=0;entryX=0.5;entryY=0;entryDx=0;entryDy=0;exitX=0;exitY=0.5;exitDx=0;exitDy=0;" parent="1" source="q89Y1sPKiIkgIvJ2mbNi-11" target="q89Y1sPKiIkgIvJ2mbNi-2" edge="1">
                    <mxGeometry relative="1" as="geometry">
                        <mxPoint x="310" y="190" as="targetPoint"/>
                    </mxGeometry>
                </mxCell>
                <mxCell id="q89Y1sPKiIkgIvJ2mbNi-11" value="&lt;b&gt;MiddleName&lt;/b&gt;" style="ellipse;whiteSpace=wrap;html=1;align=center;" parent="1" vertex="1">
                    <mxGeometry x="320" y="60" width="100" height="40" as="geometry"/>
                </mxCell>
                <mxCell id="q89Y1sPKiIkgIvJ2mbNi-65" style="edgeStyle=orthogonalEdgeStyle;rounded=0;orthogonalLoop=1;jettySize=auto;html=1;exitX=0.5;exitY=1;exitDx=0;exitDy=0;endArrow=none;endFill=0;" parent="1" edge="1">
                    <mxGeometry relative="1" as="geometry">
                        <mxPoint x="300" y="374" as="sourcePoint"/>
                        <mxPoint x="300" y="374" as="targetPoint"/>
                    </mxGeometry>
                </mxCell>
                <mxCell id="21" style="edgeStyle=orthogonalEdgeStyle;html=1;entryX=0;entryY=0.5;entryDx=0;entryDy=0;endArrow=none;endFill=0;exitX=1;exitY=0.5;exitDx=0;exitDy=0;" parent="1" source="q89Y1sPKiIkgIvJ2mbNi-66" target="q89Y1sPKiIkgIvJ2mbNi-2" edge="1">
                    <mxGeometry relative="1" as="geometry">
                        <Array as="points">
                            <mxPoint x="110" y="330"/>
                            <mxPoint x="110" y="310"/>
                            <mxPoint x="150" y="310"/>
                            <mxPoint x="150" y="220"/>
                        </Array>
                    </mxGeometry>
                </mxCell>
                <mxCell id="q89Y1sPKiIkgIvJ2mbNi-66" value="&lt;b&gt;FatherName&lt;/b&gt;" style="ellipse;whiteSpace=wrap;html=1;align=center;" parent="1" vertex="1">
                    <mxGeometry y="310" width="100" height="40" as="geometry"/>
                </mxCell>
                <mxCell id="11" style="edgeStyle=orthogonalEdgeStyle;html=1;endArrow=none;endFill=0;exitX=1;exitY=0.5;exitDx=0;exitDy=0;entryX=0.5;entryY=0;entryDx=0;entryDy=0;" parent="1" source="2" target="q89Y1sPKiIkgIvJ2mbNi-2" edge="1">
                    <mxGeometry relative="1" as="geometry">
                        <mxPoint x="280" y="180" as="targetPoint"/>
                        <mxPoint x="190" y="160" as="sourcePoint"/>
                    </mxGeometry>
                </mxCell>
                <mxCell id="2" value="&lt;b&gt;TemporaryAddress&lt;/b&gt;" style="ellipse;whiteSpace=wrap;html=1;align=center;" parent="1" vertex="1">
                    <mxGeometry x="20" y="130" width="130" height="40" as="geometry"/>
                </mxCell>
                <mxCell id="20" style="edgeStyle=orthogonalEdgeStyle;html=1;entryX=0;entryY=0.5;entryDx=0;entryDy=0;endArrow=none;endFill=0;exitX=1;exitY=0.5;exitDx=0;exitDy=0;" parent="1" source="4" target="q89Y1sPKiIkgIvJ2mbNi-2" edge="1">
                    <mxGeometry relative="1" as="geometry"/>
                </mxCell>
                <mxCell id="4" value="&lt;b&gt;CreatedAt&lt;/b&gt;" style="ellipse;whiteSpace=wrap;html=1;align=center;" parent="1" vertex="1">
                    <mxGeometry x="20" y="250" width="100" height="40" as="geometry"/>
                </mxCell>
                <mxCell id="25" style="edgeStyle=orthogonalEdgeStyle;html=1;entryX=0;entryY=0.5;entryDx=0;entryDy=0;endArrow=none;endFill=0;exitX=0.5;exitY=0;exitDx=0;exitDy=0;" parent="1" source="5" target="q89Y1sPKiIkgIvJ2mbNi-2" edge="1">
                    <mxGeometry relative="1" as="geometry"/>
                </mxCell>
                <mxCell id="5" value="&lt;b&gt;MotherName&lt;/b&gt;" style="ellipse;whiteSpace=wrap;html=1;align=center;" parent="1" vertex="1">
                    <mxGeometry x="100" y="440" width="100" height="40" as="geometry"/>
                </mxCell>
                <mxCell id="28" style="edgeStyle=orthogonalEdgeStyle;html=1;entryX=0;entryY=0.5;entryDx=0;entryDy=0;endArrow=none;endFill=0;" parent="1" source="6" target="q89Y1sPKiIkgIvJ2mbNi-2" edge="1">
                    <mxGeometry relative="1" as="geometry">
                        <Array as="points">
                            <mxPoint x="280" y="420"/>
                            <mxPoint x="150" y="420"/>
                            <mxPoint x="150" y="220"/>
                        </Array>
                    </mxGeometry>
                </mxCell>
                <mxCell id="6" value="&lt;b&gt;MotherMobile&lt;/b&gt;" style="ellipse;whiteSpace=wrap;html=1;align=center;" parent="1" vertex="1">
                    <mxGeometry x="230" y="450" width="100" height="40" as="geometry"/>
                </mxCell>
                <mxCell id="23" style="edgeStyle=orthogonalEdgeStyle;html=1;entryX=0;entryY=0.5;entryDx=0;entryDy=0;endArrow=none;endFill=0;exitX=0;exitY=0.5;exitDx=0;exitDy=0;" parent="1" source="7" target="q89Y1sPKiIkgIvJ2mbNi-2" edge="1">
                    <mxGeometry relative="1" as="geometry"/>
                </mxCell>
                <mxCell id="7" value="&lt;b&gt;FatherMobile&lt;/b&gt;" style="ellipse;whiteSpace=wrap;html=1;align=center;" parent="1" vertex="1">
                    <mxGeometry x="160" y="310" width="100" height="40" as="geometry"/>
                </mxCell>
                <mxCell id="37" style="edgeStyle=orthogonalEdgeStyle;html=1;entryX=0;entryY=0.5;entryDx=0;entryDy=0;endArrow=none;endFill=0;" parent="1" source="8" target="q89Y1sPKiIkgIvJ2mbNi-2" edge="1">
                    <mxGeometry relative="1" as="geometry">
                        <Array as="points">
                            <mxPoint x="340" y="420"/>
                            <mxPoint x="150" y="420"/>
                            <mxPoint x="150" y="220"/>
                        </Array>
                    </mxGeometry>
                </mxCell>
                <mxCell id="8" value="&lt;b&gt;GuardianName&lt;/b&gt;" style="ellipse;whiteSpace=wrap;html=1;align=center;" parent="1" vertex="1">
                    <mxGeometry x="290" y="510" width="100" height="40" as="geometry"/>
                </mxCell>
                <mxCell id="22" style="edgeStyle=orthogonalEdgeStyle;html=1;entryX=0;entryY=0.5;entryDx=0;entryDy=0;endArrow=none;endFill=0;exitX=0.5;exitY=0;exitDx=0;exitDy=0;" parent="1" source="9" target="q89Y1sPKiIkgIvJ2mbNi-2" edge="1">
                    <mxGeometry relative="1" as="geometry">
                        <mxPoint x="220" y="350" as="sourcePoint"/>
                        <Array as="points">
                            <mxPoint x="70" y="374"/>
                            <mxPoint x="150" y="374"/>
                            <mxPoint x="150" y="220"/>
                        </Array>
                    </mxGeometry>
                </mxCell>
                <mxCell id="9" value="&lt;b&gt;FatherOccupation&lt;/b&gt;" style="ellipse;whiteSpace=wrap;html=1;align=center;" parent="1" vertex="1">
                    <mxGeometry x="10" y="390" width="120" height="40" as="geometry"/>
                </mxCell>
                <mxCell id="27" style="edgeStyle=orthogonalEdgeStyle;html=1;entryX=0;entryY=0.5;entryDx=0;entryDy=0;endArrow=none;endFill=0;exitX=0.5;exitY=0;exitDx=0;exitDy=0;" parent="1" source="26" target="q89Y1sPKiIkgIvJ2mbNi-2" edge="1">
                    <mxGeometry relative="1" as="geometry">
                        <Array as="points">
                            <mxPoint x="220" y="420"/>
                            <mxPoint x="150" y="420"/>
                            <mxPoint x="150" y="220"/>
                        </Array>
                    </mxGeometry>
                </mxCell>
                <mxCell id="26" value="&lt;b&gt;MotherOccupation&lt;/b&gt;" style="ellipse;whiteSpace=wrap;html=1;align=center;" parent="1" vertex="1">
                    <mxGeometry x="160" y="500" width="120" height="40" as="geometry"/>
                </mxCell>
                <mxCell id="32" style="edgeStyle=orthogonalEdgeStyle;html=1;entryX=0.5;entryY=1;entryDx=0;entryDy=0;endArrow=none;endFill=0;" parent="1" source="30" target="q89Y1sPKiIkgIvJ2mbNi-2" edge="1">
                    <mxGeometry relative="1" as="geometry"/>
                </mxCell>
                <mxCell id="30" value="&lt;b&gt;Level&lt;br&gt;&lt;/b&gt;" style="ellipse;whiteSpace=wrap;html=1;align=center;" parent="1" vertex="1">
                    <mxGeometry x="220" y="350" width="100" height="40" as="geometry"/>
                </mxCell>
                <mxCell id="34" style="edgeStyle=orthogonalEdgeStyle;html=1;entryX=0.5;entryY=1;entryDx=0;entryDy=0;endArrow=none;endFill=0;exitX=0;exitY=0.5;exitDx=0;exitDy=0;" parent="1" source="31" target="q89Y1sPKiIkgIvJ2mbNi-2" edge="1">
                    <mxGeometry relative="1" as="geometry"/>
                </mxCell>
                <mxCell id="31" value="&lt;b&gt;Semester&lt;/b&gt;" style="ellipse;whiteSpace=wrap;html=1;align=center;" parent="1" vertex="1">
                    <mxGeometry x="330" y="260" width="100" height="40" as="geometry"/>
                </mxCell>
                <mxCell id="38" style="edgeStyle=orthogonalEdgeStyle;html=1;entryX=0;entryY=0.5;entryDx=0;entryDy=0;endArrow=none;endFill=0;exitX=0;exitY=0.5;exitDx=0;exitDy=0;" parent="1" source="35" target="q89Y1sPKiIkgIvJ2mbNi-2" edge="1">
                    <mxGeometry relative="1" as="geometry">
                        <Array as="points">
                            <mxPoint x="340" y="480"/>
                            <mxPoint x="340" y="420"/>
                            <mxPoint x="150" y="420"/>
                            <mxPoint x="150" y="220"/>
                        </Array>
                    </mxGeometry>
                </mxCell>
                <mxCell id="35" value="&lt;b&gt;GuardianOccupation&lt;/b&gt;" style="ellipse;whiteSpace=wrap;html=1;align=center;" parent="1" vertex="1">
                    <mxGeometry x="350" y="460" width="160" height="40" as="geometry"/>
                </mxCell>
                <mxCell id="39" style="edgeStyle=orthogonalEdgeStyle;html=1;entryX=0;entryY=0.5;entryDx=0;entryDy=0;endArrow=none;endFill=0;exitX=0;exitY=0.5;exitDx=0;exitDy=0;" parent="1" source="36" target="q89Y1sPKiIkgIvJ2mbNi-2" edge="1">
                    <mxGeometry relative="1" as="geometry">
                        <Array as="points">
                            <mxPoint x="150" y="420"/>
                            <mxPoint x="150" y="220"/>
                        </Array>
                    </mxGeometry>
                </mxCell>
                <mxCell id="36" value="&lt;b&gt;GuardianMobile&lt;/b&gt;" style="ellipse;whiteSpace=wrap;html=1;align=center;" parent="1" vertex="1">
                    <mxGeometry x="370" y="400" width="120" height="40" as="geometry"/>
                </mxCell>
                <mxCell id="40" value="&lt;b&gt;USERS&lt;/b&gt;" style="whiteSpace=wrap;html=1;align=center;" parent="1" vertex="1">
                    <mxGeometry x="680" y="200" width="120" height="40" as="geometry"/>
                </mxCell>
                <mxCell id="43" style="edgeStyle=orthogonalEdgeStyle;html=1;entryX=0.5;entryY=0;entryDx=0;entryDy=0;endArrow=none;endFill=0;exitX=1;exitY=0.5;exitDx=0;exitDy=0;" parent="1" source="41" target="40" edge="1">
                    <mxGeometry relative="1" as="geometry"/>
                </mxCell>
                <mxCell id="41" value="&lt;b&gt;UserID&lt;/b&gt;" style="ellipse;whiteSpace=wrap;html=1;align=center;fontStyle=4;" parent="1" vertex="1">
                    <mxGeometry x="580" y="140" width="100" height="40" as="geometry"/>
                </mxCell>
                <mxCell id="51" style="edgeStyle=orthogonalEdgeStyle;html=1;entryX=0.5;entryY=0;entryDx=0;entryDy=0;endArrow=none;endFill=0;" parent="1" source="44" target="40" edge="1">
                    <mxGeometry relative="1" as="geometry"/>
                </mxCell>
                <mxCell id="44" value="&lt;b&gt;Username&lt;/b&gt;" style="ellipse;whiteSpace=wrap;html=1;align=center;" parent="1" vertex="1">
                    <mxGeometry x="690" y="80" width="100" height="40" as="geometry"/>
                </mxCell>
                <mxCell id="50" style="edgeStyle=orthogonalEdgeStyle;html=1;entryX=0.5;entryY=0;entryDx=0;entryDy=0;endArrow=none;endFill=0;" parent="1" source="45" target="40" edge="1">
                    <mxGeometry relative="1" as="geometry"/>
                </mxCell>
                <mxCell id="45" value="&lt;b&gt;Password&lt;/b&gt;" style="ellipse;whiteSpace=wrap;html=1;align=center;" parent="1" vertex="1">
                    <mxGeometry x="810" y="140" width="100" height="40" as="geometry"/>
                </mxCell>
                <mxCell id="49" style="edgeStyle=orthogonalEdgeStyle;html=1;entryX=1;entryY=0.5;entryDx=0;entryDy=0;endArrow=none;endFill=0;" parent="1" source="46" target="40" edge="1">
                    <mxGeometry relative="1" as="geometry"/>
                </mxCell>
                <mxCell id="46" value="&lt;b&gt;CreatedAt&lt;/b&gt;" style="ellipse;whiteSpace=wrap;html=1;align=center;" parent="1" vertex="1">
                    <mxGeometry x="860" y="200" width="100" height="40" as="geometry"/>
                </mxCell>
                <mxCell id="48" style="edgeStyle=orthogonalEdgeStyle;html=1;entryX=0.5;entryY=1;entryDx=0;entryDy=0;endArrow=none;endFill=0;" parent="1" source="47" target="40" edge="1">
                    <mxGeometry relative="1" as="geometry"/>
                </mxCell>
                <mxCell id="47" value="&lt;b&gt;UserType&lt;/b&gt;" style="ellipse;whiteSpace=wrap;html=1;align=center;" parent="1" vertex="1">
                    <mxGeometry x="690" y="280" width="100" height="40" as="geometry"/>
                </mxCell>
            </root>
        </mxGraphModel>
    </diagram>
    <diagram name="ERW-Diagram" id="gbe1xK2sopJvGz2qG00P">
        <mxGraphModel dx="581" dy="488" grid="1" gridSize="10" guides="1" tooltips="1" connect="1" arrows="1" fold="1" page="1" pageScale="1" pageWidth="1169" pageHeight="827" math="0" shadow="0">
            <root>
                <mxCell id="07htjKUWKZQOqNFre8PX-0"/>
                <mxCell id="07htjKUWKZQOqNFre8PX-1" parent="07htjKUWKZQOqNFre8PX-0"/>
                <mxCell id="07htjKUWKZQOqNFre8PX-2" style="edgeStyle=orthogonalEdgeStyle;rounded=0;orthogonalLoop=1;jettySize=auto;html=1;entryX=0;entryY=0.5;entryDx=0;entryDy=0;endArrow=none;endFill=0;exitX=1;exitY=0.5;exitDx=0;exitDy=0;strokeColor=#FFFFFF;" parent="07htjKUWKZQOqNFre8PX-1" source="07htjKUWKZQOqNFre8PX-4" target="07htjKUWKZQOqNFre8PX-9" edge="1">
                    <mxGeometry relative="1" as="geometry"/>
                </mxCell>
                <mxCell id="07htjKUWKZQOqNFre8PX-3" style="edgeStyle=orthogonalEdgeStyle;rounded=0;orthogonalLoop=1;jettySize=auto;html=1;endArrow=none;endFill=0;entryX=0;entryY=0.5;entryDx=0;entryDy=0;exitX=1;exitY=0.5;exitDx=0;exitDy=0;strokeColor=#FFFFFF;" parent="07htjKUWKZQOqNFre8PX-1" source="07htjKUWKZQOqNFre8PX-4" target="07htjKUWKZQOqNFre8PX-22" edge="1">
                    <mxGeometry relative="1" as="geometry">
                        <mxPoint x="680" y="460" as="targetPoint"/>
                    </mxGeometry>
                </mxCell>
                <mxCell id="07htjKUWKZQOqNFre8PX-4" value="&lt;b&gt;STUDIES&lt;/b&gt;" style="shape=rhombus;perimeter=rhombusPerimeter;whiteSpace=wrap;html=1;align=center;strokeColor=#FFFFFF;" parent="07htjKUWKZQOqNFre8PX-1" vertex="1">
                    <mxGeometry x="460" y="190" width="120" height="60" as="geometry"/>
                </mxCell>
                <mxCell id="07htjKUWKZQOqNFre8PX-5" style="edgeStyle=orthogonalEdgeStyle;rounded=0;orthogonalLoop=1;jettySize=auto;html=1;entryX=0;entryY=0.5;entryDx=0;entryDy=0;endArrow=none;endFill=0;exitX=1;exitY=0.5;exitDx=0;exitDy=0;strokeColor=#FFFFFF;" parent="07htjKUWKZQOqNFre8PX-1" source="07htjKUWKZQOqNFre8PX-9" target="07htjKUWKZQOqNFre8PX-10" edge="1">
                    <mxGeometry relative="1" as="geometry"/>
                </mxCell>
                <mxCell id="07htjKUWKZQOqNFre8PX-6" style="edgeStyle=orthogonalEdgeStyle;rounded=0;orthogonalLoop=1;jettySize=auto;html=1;endArrow=none;endFill=0;entryX=0.5;entryY=0;entryDx=0;entryDy=0;exitX=0.5;exitY=1;exitDx=0;exitDy=0;strokeColor=#FFFFFF;" parent="07htjKUWKZQOqNFre8PX-1" source="07htjKUWKZQOqNFre8PX-9" target="07htjKUWKZQOqNFre8PX-13" edge="1">
                    <mxGeometry relative="1" as="geometry"/>
                </mxCell>
                <mxCell id="07htjKUWKZQOqNFre8PX-7" style="edgeStyle=orthogonalEdgeStyle;rounded=0;orthogonalLoop=1;jettySize=auto;html=1;entryX=1;entryY=0.5;entryDx=0;entryDy=0;endArrow=none;endFill=0;exitX=0.5;exitY=0;exitDx=0;exitDy=0;strokeColor=#FFFFFF;" parent="07htjKUWKZQOqNFre8PX-1" source="07htjKUWKZQOqNFre8PX-9" target="07htjKUWKZQOqNFre8PX-17" edge="1">
                    <mxGeometry relative="1" as="geometry"/>
                </mxCell>
                <mxCell id="07htjKUWKZQOqNFre8PX-8" style="edgeStyle=orthogonalEdgeStyle;rounded=0;orthogonalLoop=1;jettySize=auto;html=1;entryX=0;entryY=0.5;entryDx=0;entryDy=0;endArrow=none;endFill=0;strokeColor=#FFFFFF;" parent="07htjKUWKZQOqNFre8PX-1" source="07htjKUWKZQOqNFre8PX-9" target="07htjKUWKZQOqNFre8PX-56" edge="1">
                    <mxGeometry relative="1" as="geometry"/>
                </mxCell>
                <mxCell id="07htjKUWKZQOqNFre8PX-9" value="&lt;b&gt;BACHELOR&lt;/b&gt;" style="whiteSpace=wrap;html=1;align=center;strokeColor=#FFFFFF;" parent="07htjKUWKZQOqNFre8PX-1" vertex="1">
                    <mxGeometry x="680" y="200" width="120" height="40" as="geometry"/>
                </mxCell>
                <mxCell id="07htjKUWKZQOqNFre8PX-10" value="&lt;b&gt;Batch&lt;/b&gt;" style="ellipse;whiteSpace=wrap;html=1;align=center;strokeColor=#FFFFFF;" parent="07htjKUWKZQOqNFre8PX-1" vertex="1">
                    <mxGeometry x="840" y="200" width="100" height="40" as="geometry"/>
                </mxCell>
                <mxCell id="07htjKUWKZQOqNFre8PX-11" style="edgeStyle=orthogonalEdgeStyle;rounded=0;orthogonalLoop=1;jettySize=auto;html=1;entryX=0.5;entryY=0;entryDx=0;entryDy=0;endArrow=none;endFill=0;exitX=0.5;exitY=1;exitDx=0;exitDy=0;strokeColor=#FFFFFF;" parent="07htjKUWKZQOqNFre8PX-1" source="07htjKUWKZQOqNFre8PX-12" target="07htjKUWKZQOqNFre8PX-9" edge="1">
                    <mxGeometry relative="1" as="geometry"/>
                </mxCell>
                <mxCell id="07htjKUWKZQOqNFre8PX-12" value="&lt;b&gt;Faculty&lt;/b&gt;" style="ellipse;whiteSpace=wrap;html=1;align=center;strokeColor=#FFFFFF;" parent="07htjKUWKZQOqNFre8PX-1" vertex="1">
                    <mxGeometry x="690" y="100" width="100" height="40" as="geometry"/>
                </mxCell>
                <mxCell id="07htjKUWKZQOqNFre8PX-13" value="&lt;b&gt;Program&lt;/b&gt;" style="ellipse;whiteSpace=wrap;html=1;align=center;strokeColor=#FFFFFF;" parent="07htjKUWKZQOqNFre8PX-1" vertex="1">
                    <mxGeometry x="690" y="260" width="100" height="40" as="geometry"/>
                </mxCell>
                <mxCell id="07htjKUWKZQOqNFre8PX-14" style="edgeStyle=orthogonalEdgeStyle;rounded=0;orthogonalLoop=1;jettySize=auto;html=1;entryX=0.5;entryY=0;entryDx=0;entryDy=0;endArrow=none;endFill=0;exitX=0;exitY=0.5;exitDx=0;exitDy=0;strokeColor=#FFFFFF;" parent="07htjKUWKZQOqNFre8PX-1" source="07htjKUWKZQOqNFre8PX-15" target="07htjKUWKZQOqNFre8PX-9" edge="1">
                    <mxGeometry relative="1" as="geometry"/>
                </mxCell>
                <mxCell id="07htjKUWKZQOqNFre8PX-15" value="&lt;b&gt;Year&lt;/b&gt;" style="ellipse;whiteSpace=wrap;html=1;align=center;strokeColor=#FFFFFF;" parent="07htjKUWKZQOqNFre8PX-1" vertex="1">
                    <mxGeometry x="780" y="150" width="100" height="40" as="geometry"/>
                </mxCell>
                <mxCell id="07htjKUWKZQOqNFre8PX-16" style="edgeStyle=orthogonalEdgeStyle;rounded=0;orthogonalLoop=1;jettySize=auto;html=1;entryX=0;entryY=0.5;entryDx=0;entryDy=0;endArrow=none;endFill=0;exitX=1;exitY=0.5;exitDx=0;exitDy=0;strokeColor=#FFFFFF;" parent="07htjKUWKZQOqNFre8PX-1" source="07htjKUWKZQOqNFre8PX-35" target="07htjKUWKZQOqNFre8PX-4" edge="1">
                    <mxGeometry relative="1" as="geometry"/>
                </mxCell>
                <mxCell id="07htjKUWKZQOqNFre8PX-17" value="&lt;b&gt;TUNo&lt;/b&gt;" style="ellipse;whiteSpace=wrap;html=1;align=center;fontStyle=4;strokeColor=#FFFFFF;" parent="07htjKUWKZQOqNFre8PX-1" vertex="1">
                    <mxGeometry x="590" y="140" width="100" height="40" as="geometry"/>
                </mxCell>
                <mxCell id="07htjKUWKZQOqNFre8PX-18" style="edgeStyle=orthogonalEdgeStyle;rounded=0;orthogonalLoop=1;jettySize=auto;html=1;entryX=0;entryY=0.5;entryDx=0;entryDy=0;endArrow=none;endFill=0;exitX=1;exitY=0.5;exitDx=0;exitDy=0;strokeColor=#FFFFFF;" parent="07htjKUWKZQOqNFre8PX-1" source="07htjKUWKZQOqNFre8PX-22" target="07htjKUWKZQOqNFre8PX-23" edge="1">
                    <mxGeometry relative="1" as="geometry"/>
                </mxCell>
                <mxCell id="07htjKUWKZQOqNFre8PX-19" style="edgeStyle=orthogonalEdgeStyle;rounded=0;orthogonalLoop=1;jettySize=auto;html=1;endArrow=none;endFill=0;entryX=0.5;entryY=0;entryDx=0;entryDy=0;exitX=0.5;exitY=1;exitDx=0;exitDy=0;strokeColor=#FFFFFF;" parent="07htjKUWKZQOqNFre8PX-1" source="07htjKUWKZQOqNFre8PX-22" target="07htjKUWKZQOqNFre8PX-26" edge="1">
                    <mxGeometry relative="1" as="geometry"/>
                </mxCell>
                <mxCell id="07htjKUWKZQOqNFre8PX-20" style="edgeStyle=orthogonalEdgeStyle;rounded=0;orthogonalLoop=1;jettySize=auto;html=1;entryX=0.5;entryY=1;entryDx=0;entryDy=0;endArrow=none;endFill=0;exitX=0.5;exitY=0;exitDx=0;exitDy=0;strokeColor=#FFFFFF;" parent="07htjKUWKZQOqNFre8PX-1" source="07htjKUWKZQOqNFre8PX-22" target="07htjKUWKZQOqNFre8PX-27" edge="1">
                    <mxGeometry relative="1" as="geometry"/>
                </mxCell>
                <mxCell id="07htjKUWKZQOqNFre8PX-21" style="edgeStyle=orthogonalEdgeStyle;rounded=0;orthogonalLoop=1;jettySize=auto;html=1;entryX=0;entryY=0.5;entryDx=0;entryDy=0;endArrow=none;endFill=0;exitX=1;exitY=0.5;exitDx=0;exitDy=0;strokeColor=#FFFFFF;" parent="07htjKUWKZQOqNFre8PX-1" source="07htjKUWKZQOqNFre8PX-22" target="07htjKUWKZQOqNFre8PX-57" edge="1">
                    <mxGeometry relative="1" as="geometry"/>
                </mxCell>
                <mxCell id="07htjKUWKZQOqNFre8PX-22" value="&lt;b&gt;PLUSTWO&lt;/b&gt;" style="whiteSpace=wrap;html=1;align=center;strokeColor=#FFFFFF;" parent="07htjKUWKZQOqNFre8PX-1" vertex="1">
                    <mxGeometry x="620" y="400" width="120" height="40" as="geometry"/>
                </mxCell>
                <mxCell id="07htjKUWKZQOqNFre8PX-23" value="&lt;b&gt;College&lt;/b&gt;" style="ellipse;whiteSpace=wrap;html=1;align=center;strokeColor=#FFFFFF;" parent="07htjKUWKZQOqNFre8PX-1" vertex="1">
                    <mxGeometry x="790" y="400" width="100" height="40" as="geometry"/>
                </mxCell>
                <mxCell id="07htjKUWKZQOqNFre8PX-24" style="edgeStyle=orthogonalEdgeStyle;rounded=0;orthogonalLoop=1;jettySize=auto;html=1;entryX=0.5;entryY=0;entryDx=0;entryDy=0;endArrow=none;endFill=0;exitX=0;exitY=0.5;exitDx=0;exitDy=0;strokeColor=#FFFFFF;" parent="07htjKUWKZQOqNFre8PX-1" source="07htjKUWKZQOqNFre8PX-25" target="07htjKUWKZQOqNFre8PX-22" edge="1">
                    <mxGeometry relative="1" as="geometry"/>
                </mxCell>
                <mxCell id="07htjKUWKZQOqNFre8PX-25" value="&lt;b&gt;Faculty&lt;/b&gt;" style="ellipse;whiteSpace=wrap;html=1;align=center;strokeColor=#FFFFFF;" parent="07htjKUWKZQOqNFre8PX-1" vertex="1">
                    <mxGeometry x="750" y="350" width="100" height="40" as="geometry"/>
                </mxCell>
                <mxCell id="07htjKUWKZQOqNFre8PX-26" value="&lt;b&gt;Grade&lt;/b&gt;" style="ellipse;whiteSpace=wrap;html=1;align=center;strokeColor=#FFFFFF;" parent="07htjKUWKZQOqNFre8PX-1" vertex="1">
                    <mxGeometry x="630" y="460" width="100" height="40" as="geometry"/>
                </mxCell>
                <mxCell id="07htjKUWKZQOqNFre8PX-27" value="&lt;b&gt;TUNo&lt;/b&gt;" style="ellipse;whiteSpace=wrap;html=1;align=center;fontStyle=4;strokeColor=#FFFFFF;" parent="07htjKUWKZQOqNFre8PX-1" vertex="1">
                    <mxGeometry x="630" y="310" width="100" height="40" as="geometry"/>
                </mxCell>
                <mxCell id="07htjKUWKZQOqNFre8PX-28" style="edgeStyle=orthogonalEdgeStyle;rounded=0;orthogonalLoop=1;jettySize=auto;html=1;endArrow=none;endFill=0;exitX=1;exitY=0.5;exitDx=0;exitDy=0;entryX=0;entryY=0.5;entryDx=0;entryDy=0;strokeColor=#FFFFFF;" parent="07htjKUWKZQOqNFre8PX-1" source="07htjKUWKZQOqNFre8PX-29" target="07htjKUWKZQOqNFre8PX-69" edge="1">
                    <mxGeometry relative="1" as="geometry"/>
                </mxCell>
                <mxCell id="07htjKUWKZQOqNFre8PX-29" value="&lt;b&gt;HAS&lt;/b&gt;" style="shape=rhombus;perimeter=rhombusPerimeter;whiteSpace=wrap;html=1;align=center;strokeColor=#FFFFFF;" parent="07htjKUWKZQOqNFre8PX-1" vertex="1">
                    <mxGeometry x="380" y="560" width="120" height="60" as="geometry"/>
                </mxCell>
                <mxCell id="07htjKUWKZQOqNFre8PX-30" style="edgeStyle=orthogonalEdgeStyle;rounded=0;orthogonalLoop=1;jettySize=auto;html=1;entryX=0.5;entryY=0;entryDx=0;entryDy=0;endArrow=none;endFill=0;exitX=1;exitY=0.5;exitDx=0;exitDy=0;strokeColor=#FFFFFF;" parent="07htjKUWKZQOqNFre8PX-1" source="07htjKUWKZQOqNFre8PX-35" target="07htjKUWKZQOqNFre8PX-29" edge="1">
                    <mxGeometry relative="1" as="geometry">
                        <mxPoint x="360" y="220" as="sourcePoint"/>
                    </mxGeometry>
                </mxCell>
                <mxCell id="07htjKUWKZQOqNFre8PX-31" style="edgeStyle=orthogonalEdgeStyle;rounded=0;orthogonalLoop=1;jettySize=auto;html=1;entryX=0;entryY=0.5;entryDx=0;entryDy=0;endArrow=none;endFill=0;exitX=1;exitY=0.5;exitDx=0;exitDy=0;strokeColor=#FFFFFF;" parent="07htjKUWKZQOqNFre8PX-1" source="07htjKUWKZQOqNFre8PX-34" target="07htjKUWKZQOqNFre8PX-29" edge="1">
                    <mxGeometry relative="1" as="geometry"/>
                </mxCell>
                <mxCell id="07htjKUWKZQOqNFre8PX-32" style="edgeStyle=orthogonalEdgeStyle;rounded=0;orthogonalLoop=1;jettySize=auto;html=1;entryX=0;entryY=0.5;entryDx=0;entryDy=0;endArrow=none;endFill=0;exitX=0.5;exitY=0;exitDx=0;exitDy=0;strokeColor=#FFFFFF;" parent="07htjKUWKZQOqNFre8PX-1" source="07htjKUWKZQOqNFre8PX-34" target="07htjKUWKZQOqNFre8PX-55" edge="1">
                    <mxGeometry relative="1" as="geometry"/>
                </mxCell>
                <mxCell id="07htjKUWKZQOqNFre8PX-33" value="" style="edgeStyle=orthogonalEdgeStyle;rounded=0;orthogonalLoop=1;jettySize=auto;html=1;endArrow=none;endFill=0;strokeColor=#FFFFFF;" parent="07htjKUWKZQOqNFre8PX-1" source="07htjKUWKZQOqNFre8PX-34" target="07htjKUWKZQOqNFre8PX-64" edge="1">
                    <mxGeometry relative="1" as="geometry"/>
                </mxCell>
                <mxCell id="07htjKUWKZQOqNFre8PX-34" value="&lt;b&gt;FATHER&lt;/b&gt;" style="whiteSpace=wrap;html=1;align=center;strokeColor=#FFFFFF;" parent="07htjKUWKZQOqNFre8PX-1" vertex="1">
                    <mxGeometry x="210" y="570" width="100" height="40" as="geometry"/>
                </mxCell>
                <mxCell id="07htjKUWKZQOqNFre8PX-35" value="&lt;b&gt;STUDENT&lt;/b&gt;" style="whiteSpace=wrap;html=1;align=center;strokeColor=#FFFFFF;" parent="07htjKUWKZQOqNFre8PX-1" vertex="1">
                    <mxGeometry x="240" y="200" width="120" height="40" as="geometry"/>
                </mxCell>
                <mxCell id="07htjKUWKZQOqNFre8PX-36" style="edgeStyle=orthogonalEdgeStyle;rounded=0;orthogonalLoop=1;jettySize=auto;html=1;entryX=0.5;entryY=0;entryDx=0;entryDy=0;endArrow=none;endFill=0;exitX=0;exitY=0.5;exitDx=0;exitDy=0;strokeColor=#FFFFFF;" parent="07htjKUWKZQOqNFre8PX-1" source="07htjKUWKZQOqNFre8PX-37" target="07htjKUWKZQOqNFre8PX-35" edge="1">
                    <mxGeometry relative="1" as="geometry"/>
                </mxCell>
                <mxCell id="07htjKUWKZQOqNFre8PX-37" value="&lt;b&gt;RegNo&lt;/b&gt;" style="ellipse;whiteSpace=wrap;html=1;align=center;fontStyle=4;strokeColor=#FFFFFF;" parent="07htjKUWKZQOqNFre8PX-1" vertex="1">
                    <mxGeometry x="350" y="140" width="100" height="40" as="geometry"/>
                </mxCell>
                <mxCell id="07htjKUWKZQOqNFre8PX-38" value="&lt;b&gt;FirstName&lt;/b&gt;" style="ellipse;whiteSpace=wrap;html=1;align=center;strokeColor=#FFFFFF;" parent="07htjKUWKZQOqNFre8PX-1" vertex="1">
                    <mxGeometry x="320" y="70" width="100" height="40" as="geometry"/>
                </mxCell>
                <mxCell id="07htjKUWKZQOqNFre8PX-39" style="edgeStyle=orthogonalEdgeStyle;rounded=0;orthogonalLoop=1;jettySize=auto;html=1;entryX=0;entryY=0.5;entryDx=0;entryDy=0;endArrow=none;endFill=0;exitX=0.5;exitY=0;exitDx=0;exitDy=0;strokeColor=#FFFFFF;" parent="07htjKUWKZQOqNFre8PX-1" source="07htjKUWKZQOqNFre8PX-35" target="07htjKUWKZQOqNFre8PX-38" edge="1">
                    <mxGeometry relative="1" as="geometry"/>
                </mxCell>
                <mxCell id="07htjKUWKZQOqNFre8PX-40" style="edgeStyle=orthogonalEdgeStyle;rounded=0;orthogonalLoop=1;jettySize=auto;html=1;entryX=0.5;entryY=0;entryDx=0;entryDy=0;endArrow=none;endFill=0;exitX=1;exitY=0.5;exitDx=0;exitDy=0;strokeColor=#FFFFFF;" parent="07htjKUWKZQOqNFre8PX-1" source="07htjKUWKZQOqNFre8PX-41" target="07htjKUWKZQOqNFre8PX-35" edge="1">
                    <mxGeometry relative="1" as="geometry"/>
                </mxCell>
                <mxCell id="07htjKUWKZQOqNFre8PX-41" value="&lt;b&gt;LastName&lt;/b&gt;" style="ellipse;whiteSpace=wrap;html=1;align=center;strokeColor=#FFFFFF;" parent="07htjKUWKZQOqNFre8PX-1" vertex="1">
                    <mxGeometry x="90" y="100" width="100" height="40" as="geometry"/>
                </mxCell>
                <mxCell id="07htjKUWKZQOqNFre8PX-42" value="&lt;b&gt;Gender&lt;/b&gt;" style="ellipse;whiteSpace=wrap;html=1;align=center;strokeColor=#FFFFFF;" parent="07htjKUWKZQOqNFre8PX-1" vertex="1">
                    <mxGeometry x="100" y="150" width="100" height="40" as="geometry"/>
                </mxCell>
                <mxCell id="07htjKUWKZQOqNFre8PX-43" style="edgeStyle=orthogonalEdgeStyle;rounded=0;orthogonalLoop=1;jettySize=auto;html=1;entryX=1;entryY=0.5;entryDx=0;entryDy=0;endArrow=none;endFill=0;exitX=0;exitY=0.5;exitDx=0;exitDy=0;strokeColor=#FFFFFF;" parent="07htjKUWKZQOqNFre8PX-1" source="07htjKUWKZQOqNFre8PX-35" target="07htjKUWKZQOqNFre8PX-42" edge="1">
                    <mxGeometry relative="1" as="geometry"/>
                </mxCell>
                <mxCell id="07htjKUWKZQOqNFre8PX-45" style="edgeStyle=orthogonalEdgeStyle;rounded=0;orthogonalLoop=1;jettySize=auto;html=1;entryX=1;entryY=0.5;entryDx=0;entryDy=0;endArrow=none;endFill=0;exitX=0;exitY=0.5;exitDx=0;exitDy=0;strokeColor=#FFFFFF;" parent="07htjKUWKZQOqNFre8PX-1" source="07htjKUWKZQOqNFre8PX-35" target="PeYRBsqGOsVecDRt46Dp-0" edge="1">
                    <mxGeometry relative="1" as="geometry">
                        <mxPoint x="170" y="220" as="targetPoint"/>
                    </mxGeometry>
                </mxCell>
                <mxCell id="07htjKUWKZQOqNFre8PX-46" value="&lt;b&gt;Mobile&lt;/b&gt;" style="ellipse;whiteSpace=wrap;html=1;align=center;strokeColor=#FFFFFF;" parent="07htjKUWKZQOqNFre8PX-1" vertex="1">
                    <mxGeometry x="120" y="330" width="100" height="40" as="geometry"/>
                </mxCell>
                <mxCell id="07htjKUWKZQOqNFre8PX-47" style="edgeStyle=orthogonalEdgeStyle;rounded=0;orthogonalLoop=1;jettySize=auto;html=1;entryX=0.5;entryY=0;entryDx=0;entryDy=0;endArrow=none;endFill=0;exitX=0;exitY=0.5;exitDx=0;exitDy=0;exitPerimeter=0;strokeColor=#FFFFFF;" parent="07htjKUWKZQOqNFre8PX-1" source="07htjKUWKZQOqNFre8PX-35" target="07htjKUWKZQOqNFre8PX-46" edge="1">
                    <mxGeometry relative="1" as="geometry"/>
                </mxCell>
                <mxCell id="07htjKUWKZQOqNFre8PX-48" value="&lt;b&gt;Email&lt;/b&gt;" style="ellipse;whiteSpace=wrap;html=1;align=center;strokeColor=#FFFFFF;" parent="07htjKUWKZQOqNFre8PX-1" vertex="1">
                    <mxGeometry x="180" y="290" width="100" height="40" as="geometry"/>
                </mxCell>
                <mxCell id="07htjKUWKZQOqNFre8PX-49" style="edgeStyle=orthogonalEdgeStyle;rounded=0;orthogonalLoop=1;jettySize=auto;html=1;endArrow=none;endFill=0;exitX=0.5;exitY=1;exitDx=0;exitDy=0;entryX=0.5;entryY=0;entryDx=0;entryDy=0;strokeColor=#FFFFFF;" parent="07htjKUWKZQOqNFre8PX-1" source="07htjKUWKZQOqNFre8PX-35" target="07htjKUWKZQOqNFre8PX-48" edge="1">
                    <mxGeometry relative="1" as="geometry"/>
                </mxCell>
                <mxCell id="07htjKUWKZQOqNFre8PX-50" style="edgeStyle=orthogonalEdgeStyle;rounded=0;orthogonalLoop=1;jettySize=auto;html=1;endArrow=none;endFill=0;entryX=0.5;entryY=0;entryDx=0;entryDy=0;strokeColor=#FFFFFF;" parent="07htjKUWKZQOqNFre8PX-1" source="07htjKUWKZQOqNFre8PX-35" target="07htjKUWKZQOqNFre8PX-54" edge="1">
                    <mxGeometry relative="1" as="geometry">
                        <mxPoint x="290" y="350" as="targetPoint"/>
                    </mxGeometry>
                </mxCell>
                <mxCell id="07htjKUWKZQOqNFre8PX-51" style="edgeStyle=orthogonalEdgeStyle;rounded=0;orthogonalLoop=1;jettySize=auto;html=1;entryX=0.5;entryY=0;entryDx=0;entryDy=0;endArrow=none;endFill=0;exitX=0.5;exitY=1;exitDx=0;exitDy=0;strokeColor=#FFFFFF;" parent="07htjKUWKZQOqNFre8PX-1" source="07htjKUWKZQOqNFre8PX-52" target="07htjKUWKZQOqNFre8PX-35" edge="1">
                    <mxGeometry relative="1" as="geometry"/>
                </mxCell>
                <mxCell id="07htjKUWKZQOqNFre8PX-52" value="&lt;b&gt;MiddleName&lt;/b&gt;" style="ellipse;whiteSpace=wrap;html=1;align=center;strokeColor=#FFFFFF;" parent="07htjKUWKZQOqNFre8PX-1" vertex="1">
                    <mxGeometry x="190" y="70" width="100" height="40" as="geometry"/>
                </mxCell>
                <mxCell id="07htjKUWKZQOqNFre8PX-53" style="edgeStyle=orthogonalEdgeStyle;rounded=0;orthogonalLoop=1;jettySize=auto;html=1;exitX=0.5;exitY=1;exitDx=0;exitDy=0;endArrow=none;endFill=0;strokeColor=#FFFFFF;" parent="07htjKUWKZQOqNFre8PX-1" edge="1">
                    <mxGeometry relative="1" as="geometry">
                        <mxPoint x="300" y="374" as="sourcePoint"/>
                        <mxPoint x="300" y="374" as="targetPoint"/>
                    </mxGeometry>
                </mxCell>
                <mxCell id="07htjKUWKZQOqNFre8PX-54" value="&lt;b&gt;DOB&lt;/b&gt;" style="ellipse;whiteSpace=wrap;html=1;align=center;strokeColor=#FFFFFF;" parent="07htjKUWKZQOqNFre8PX-1" vertex="1">
                    <mxGeometry x="250" y="330" width="100" height="40" as="geometry"/>
                </mxCell>
                <mxCell id="07htjKUWKZQOqNFre8PX-55" value="&lt;b&gt;RegNo&lt;/b&gt;" style="ellipse;whiteSpace=wrap;html=1;align=center;fontStyle=4;strokeColor=#FFFFFF;" parent="07htjKUWKZQOqNFre8PX-1" vertex="1">
                    <mxGeometry x="310" y="520" width="100" height="40" as="geometry"/>
                </mxCell>
                <mxCell id="07htjKUWKZQOqNFre8PX-56" value="&lt;b&gt;RegNo&lt;/b&gt;" style="ellipse;whiteSpace=wrap;html=1;align=center;fontStyle=4;strokeColor=#FFFFFF;" parent="07htjKUWKZQOqNFre8PX-1" vertex="1">
                    <mxGeometry x="840" y="280" width="100" height="40" as="geometry"/>
                </mxCell>
                <mxCell id="07htjKUWKZQOqNFre8PX-57" value="&lt;b&gt;RegNo&lt;/b&gt;" style="ellipse;whiteSpace=wrap;html=1;align=center;fontStyle=4;strokeColor=#FFFFFF;" parent="07htjKUWKZQOqNFre8PX-1" vertex="1">
                    <mxGeometry x="790" y="450" width="100" height="40" as="geometry"/>
                </mxCell>
                <mxCell id="07htjKUWKZQOqNFre8PX-58" style="edgeStyle=orthogonalEdgeStyle;rounded=0;orthogonalLoop=1;jettySize=auto;html=1;endArrow=none;endFill=0;exitX=0;exitY=0.5;exitDx=0;exitDy=0;entryX=0.5;entryY=0;entryDx=0;entryDy=0;strokeColor=#FFFFFF;" parent="07htjKUWKZQOqNFre8PX-1" source="07htjKUWKZQOqNFre8PX-59" target="07htjKUWKZQOqNFre8PX-34" edge="1">
                    <mxGeometry relative="1" as="geometry">
                        <mxPoint x="170" y="570" as="targetPoint"/>
                    </mxGeometry>
                </mxCell>
                <mxCell id="07htjKUWKZQOqNFre8PX-59" value="&lt;b&gt;FirstName&lt;/b&gt;" style="ellipse;whiteSpace=wrap;html=1;align=center;strokeColor=#FFFFFF;" parent="07htjKUWKZQOqNFre8PX-1" vertex="1">
                    <mxGeometry x="280" y="470" width="100" height="40" as="geometry"/>
                </mxCell>
                <mxCell id="07htjKUWKZQOqNFre8PX-60" style="edgeStyle=orthogonalEdgeStyle;rounded=0;orthogonalLoop=1;jettySize=auto;html=1;entryX=0.5;entryY=0;entryDx=0;entryDy=0;endArrow=none;endFill=0;exitX=1;exitY=0.5;exitDx=0;exitDy=0;strokeColor=#FFFFFF;" parent="07htjKUWKZQOqNFre8PX-1" source="07htjKUWKZQOqNFre8PX-61" target="07htjKUWKZQOqNFre8PX-34" edge="1">
                    <mxGeometry relative="1" as="geometry"/>
                </mxCell>
                <mxCell id="07htjKUWKZQOqNFre8PX-61" value="&lt;b&gt;LastName&lt;/b&gt;" style="ellipse;whiteSpace=wrap;html=1;align=center;strokeColor=#FFFFFF;" parent="07htjKUWKZQOqNFre8PX-1" vertex="1">
                    <mxGeometry x="130" y="480" width="100" height="40" as="geometry"/>
                </mxCell>
                <mxCell id="07htjKUWKZQOqNFre8PX-62" style="edgeStyle=orthogonalEdgeStyle;rounded=0;orthogonalLoop=1;jettySize=auto;html=1;entryX=0.5;entryY=0;entryDx=0;entryDy=0;endArrow=none;endFill=0;exitX=0.5;exitY=1;exitDx=0;exitDy=0;strokeColor=#FFFFFF;" parent="07htjKUWKZQOqNFre8PX-1" source="07htjKUWKZQOqNFre8PX-63" target="07htjKUWKZQOqNFre8PX-34" edge="1">
                    <mxGeometry relative="1" as="geometry"/>
                </mxCell>
                <mxCell id="07htjKUWKZQOqNFre8PX-63" value="&lt;b&gt;MiddleName&lt;/b&gt;" style="ellipse;whiteSpace=wrap;html=1;align=center;strokeColor=#FFFFFF;" parent="07htjKUWKZQOqNFre8PX-1" vertex="1">
                    <mxGeometry x="210" y="430" width="100" height="40" as="geometry"/>
                </mxCell>
                <mxCell id="07htjKUWKZQOqNFre8PX-64" value="&lt;b&gt;Mobile&lt;/b&gt;" style="ellipse;whiteSpace=wrap;html=1;align=center;strokeColor=#FFFFFF;" parent="07htjKUWKZQOqNFre8PX-1" vertex="1">
                    <mxGeometry x="270" y="650" width="100" height="40" as="geometry"/>
                </mxCell>
                <mxCell id="07htjKUWKZQOqNFre8PX-65" value="" style="edgeStyle=orthogonalEdgeStyle;rounded=0;orthogonalLoop=1;jettySize=auto;html=1;endArrow=none;endFill=0;strokeColor=#FFFFFF;" parent="07htjKUWKZQOqNFre8PX-1" source="07htjKUWKZQOqNFre8PX-66" target="07htjKUWKZQOqNFre8PX-34" edge="1">
                    <mxGeometry relative="1" as="geometry"/>
                </mxCell>
                <mxCell id="07htjKUWKZQOqNFre8PX-66" value="&lt;b&gt;Address&lt;/b&gt;" style="ellipse;whiteSpace=wrap;html=1;align=center;strokeColor=#FFFFFF;" parent="07htjKUWKZQOqNFre8PX-1" vertex="1">
                    <mxGeometry x="160" y="650" width="100" height="40" as="geometry"/>
                </mxCell>
                <mxCell id="07htjKUWKZQOqNFre8PX-67" value="" style="edgeStyle=orthogonalEdgeStyle;rounded=0;orthogonalLoop=1;jettySize=auto;html=1;endArrow=none;endFill=0;entryX=0;entryY=0.5;entryDx=0;entryDy=0;exitX=1;exitY=0.5;exitDx=0;exitDy=0;strokeColor=#FFFFFF;" parent="07htjKUWKZQOqNFre8PX-1" source="07htjKUWKZQOqNFre8PX-68" target="07htjKUWKZQOqNFre8PX-34" edge="1">
                    <mxGeometry relative="1" as="geometry"/>
                </mxCell>
                <mxCell id="07htjKUWKZQOqNFre8PX-68" value="&lt;b&gt;Occupation&lt;/b&gt;" style="ellipse;whiteSpace=wrap;html=1;align=center;strokeColor=#FFFFFF;" parent="07htjKUWKZQOqNFre8PX-1" vertex="1">
                    <mxGeometry x="70" y="570" width="100" height="40" as="geometry"/>
                </mxCell>
                <mxCell id="07htjKUWKZQOqNFre8PX-69" value="&lt;b&gt;MOTHER&lt;/b&gt;" style="whiteSpace=wrap;html=1;align=center;strokeColor=#FFFFFF;" parent="07htjKUWKZQOqNFre8PX-1" vertex="1">
                    <mxGeometry x="590" y="570" width="100" height="40" as="geometry"/>
                </mxCell>
                <mxCell id="07htjKUWKZQOqNFre8PX-70" style="edgeStyle=orthogonalEdgeStyle;rounded=0;orthogonalLoop=1;jettySize=auto;html=1;entryX=0.5;entryY=0;entryDx=0;entryDy=0;endArrow=none;endFill=0;exitX=1;exitY=0.5;exitDx=0;exitDy=0;strokeColor=#FFFFFF;" parent="07htjKUWKZQOqNFre8PX-1" source="07htjKUWKZQOqNFre8PX-71" target="07htjKUWKZQOqNFre8PX-69" edge="1">
                    <mxGeometry relative="1" as="geometry"/>
                </mxCell>
                <mxCell id="07htjKUWKZQOqNFre8PX-71" value="&lt;b&gt;RegNo&lt;/b&gt;" style="ellipse;whiteSpace=wrap;html=1;align=center;fontStyle=4;strokeColor=#FFFFFF;" parent="07htjKUWKZQOqNFre8PX-1" vertex="1">
                    <mxGeometry x="485" y="530" width="100" height="40" as="geometry"/>
                </mxCell>
                <mxCell id="07htjKUWKZQOqNFre8PX-72" style="edgeStyle=orthogonalEdgeStyle;rounded=0;orthogonalLoop=1;jettySize=auto;html=1;entryX=0.5;entryY=0;entryDx=0;entryDy=0;endArrow=none;endFill=0;exitX=0;exitY=0.5;exitDx=0;exitDy=0;strokeColor=#FFFFFF;" parent="07htjKUWKZQOqNFre8PX-1" source="07htjKUWKZQOqNFre8PX-73" target="07htjKUWKZQOqNFre8PX-69" edge="1">
                    <mxGeometry relative="1" as="geometry"/>
                </mxCell>
                <mxCell id="07htjKUWKZQOqNFre8PX-73" value="&lt;b&gt;FirstName&lt;/b&gt;" style="ellipse;whiteSpace=wrap;html=1;align=center;strokeColor=#FFFFFF;" parent="07htjKUWKZQOqNFre8PX-1" vertex="1">
                    <mxGeometry x="670" y="510" width="100" height="40" as="geometry"/>
                </mxCell>
                <mxCell id="07htjKUWKZQOqNFre8PX-74" style="edgeStyle=orthogonalEdgeStyle;rounded=0;orthogonalLoop=1;jettySize=auto;html=1;entryX=1;entryY=0.5;entryDx=0;entryDy=0;endArrow=none;endFill=0;exitX=0;exitY=0.5;exitDx=0;exitDy=0;strokeColor=#FFFFFF;" parent="07htjKUWKZQOqNFre8PX-1" source="07htjKUWKZQOqNFre8PX-75" target="07htjKUWKZQOqNFre8PX-69" edge="1">
                    <mxGeometry relative="1" as="geometry"/>
                </mxCell>
                <mxCell id="07htjKUWKZQOqNFre8PX-75" value="&lt;b&gt;MiddleName&lt;/b&gt;" style="ellipse;whiteSpace=wrap;html=1;align=center;strokeColor=#FFFFFF;" parent="07htjKUWKZQOqNFre8PX-1" vertex="1">
                    <mxGeometry x="750" y="570" width="100" height="40" as="geometry"/>
                </mxCell>
                <mxCell id="07htjKUWKZQOqNFre8PX-76" style="edgeStyle=orthogonalEdgeStyle;rounded=0;orthogonalLoop=1;jettySize=auto;html=1;entryX=1;entryY=0.5;entryDx=0;entryDy=0;endArrow=none;endFill=0;exitX=0;exitY=0.5;exitDx=0;exitDy=0;strokeColor=#FFFFFF;" parent="07htjKUWKZQOqNFre8PX-1" source="07htjKUWKZQOqNFre8PX-77" target="07htjKUWKZQOqNFre8PX-69" edge="1">
                    <mxGeometry relative="1" as="geometry"/>
                </mxCell>
                <mxCell id="07htjKUWKZQOqNFre8PX-77" value="&lt;b&gt;LastName&lt;/b&gt;" style="ellipse;whiteSpace=wrap;html=1;align=center;strokeColor=#FFFFFF;" parent="07htjKUWKZQOqNFre8PX-1" vertex="1">
                    <mxGeometry x="740" y="614" width="100" height="40" as="geometry"/>
                </mxCell>
                <mxCell id="07htjKUWKZQOqNFre8PX-78" style="edgeStyle=orthogonalEdgeStyle;rounded=0;orthogonalLoop=1;jettySize=auto;html=1;entryX=0.5;entryY=1;entryDx=0;entryDy=0;endArrow=none;endFill=0;exitX=1;exitY=0.5;exitDx=0;exitDy=0;strokeColor=#FFFFFF;" parent="07htjKUWKZQOqNFre8PX-1" source="07htjKUWKZQOqNFre8PX-79" target="07htjKUWKZQOqNFre8PX-69" edge="1">
                    <mxGeometry relative="1" as="geometry"/>
                </mxCell>
                <mxCell id="07htjKUWKZQOqNFre8PX-79" value="&lt;b&gt;Occupation&lt;/b&gt;" style="ellipse;whiteSpace=wrap;html=1;align=center;strokeColor=#FFFFFF;" parent="07htjKUWKZQOqNFre8PX-1" vertex="1">
                    <mxGeometry x="490" y="630" width="100" height="40" as="geometry"/>
                </mxCell>
                <mxCell id="07htjKUWKZQOqNFre8PX-80" style="edgeStyle=orthogonalEdgeStyle;rounded=0;orthogonalLoop=1;jettySize=auto;html=1;entryX=0.5;entryY=1;entryDx=0;entryDy=0;endArrow=none;endFill=0;strokeColor=#FFFFFF;" parent="07htjKUWKZQOqNFre8PX-1" source="07htjKUWKZQOqNFre8PX-81" target="07htjKUWKZQOqNFre8PX-69" edge="1">
                    <mxGeometry relative="1" as="geometry"/>
                </mxCell>
                <mxCell id="07htjKUWKZQOqNFre8PX-81" value="&lt;b&gt;Address&lt;/b&gt;" style="ellipse;whiteSpace=wrap;html=1;align=center;strokeColor=#FFFFFF;" parent="07htjKUWKZQOqNFre8PX-1" vertex="1">
                    <mxGeometry x="590" y="670" width="100" height="40" as="geometry"/>
                </mxCell>
                <mxCell id="07htjKUWKZQOqNFre8PX-82" style="edgeStyle=orthogonalEdgeStyle;rounded=0;orthogonalLoop=1;jettySize=auto;html=1;entryX=0.5;entryY=1;entryDx=0;entryDy=0;endArrow=none;endFill=0;exitX=0.5;exitY=0;exitDx=0;exitDy=0;strokeColor=#FFFFFF;" parent="07htjKUWKZQOqNFre8PX-1" source="07htjKUWKZQOqNFre8PX-83" target="07htjKUWKZQOqNFre8PX-69" edge="1">
                    <mxGeometry relative="1" as="geometry">
                        <mxPoint x="750" y="660" as="sourcePoint"/>
                        <Array as="points">
                            <mxPoint x="750" y="650"/>
                            <mxPoint x="640" y="650"/>
                        </Array>
                    </mxGeometry>
                </mxCell>
                <mxCell id="07htjKUWKZQOqNFre8PX-83" value="&lt;b&gt;Mobile&lt;/b&gt;" style="ellipse;whiteSpace=wrap;html=1;align=center;strokeColor=#FFFFFF;" parent="07htjKUWKZQOqNFre8PX-1" vertex="1">
                    <mxGeometry x="700" y="670" width="100" height="40" as="geometry"/>
                </mxCell>
                <mxCell id="07htjKUWKZQOqNFre8PX-84" style="edgeStyle=orthogonalEdgeStyle;rounded=0;orthogonalLoop=1;jettySize=auto;html=1;endArrow=none;endFill=0;exitX=0.5;exitY=1;exitDx=0;exitDy=0;entryX=0;entryY=0.5;entryDx=0;entryDy=0;strokeColor=#FFFFFF;" parent="07htjKUWKZQOqNFre8PX-1" source="07htjKUWKZQOqNFre8PX-29" target="07htjKUWKZQOqNFre8PX-103" edge="1">
                    <mxGeometry relative="1" as="geometry">
                        <mxPoint x="490" y="900" as="sourcePoint"/>
                    </mxGeometry>
                </mxCell>
                <mxCell id="07htjKUWKZQOqNFre8PX-85" style="edgeStyle=orthogonalEdgeStyle;rounded=0;orthogonalLoop=1;jettySize=auto;html=1;entryX=0.5;entryY=1;entryDx=0;entryDy=0;endArrow=none;endFill=0;exitX=1;exitY=0.5;exitDx=0;exitDy=0;strokeColor=#FFFFFF;" parent="07htjKUWKZQOqNFre8PX-1" source="07htjKUWKZQOqNFre8PX-88" target="07htjKUWKZQOqNFre8PX-29" edge="1">
                    <mxGeometry relative="1" as="geometry">
                        <mxPoint x="370" y="900" as="targetPoint"/>
                    </mxGeometry>
                </mxCell>
                <mxCell id="07htjKUWKZQOqNFre8PX-86" style="edgeStyle=orthogonalEdgeStyle;rounded=0;orthogonalLoop=1;jettySize=auto;html=1;entryX=0;entryY=0.5;entryDx=0;entryDy=0;endArrow=none;endFill=0;exitX=0.5;exitY=0;exitDx=0;exitDy=0;strokeColor=#FFFFFF;" parent="07htjKUWKZQOqNFre8PX-1" source="07htjKUWKZQOqNFre8PX-88" target="07htjKUWKZQOqNFre8PX-89" edge="1">
                    <mxGeometry relative="1" as="geometry"/>
                </mxCell>
                <mxCell id="07htjKUWKZQOqNFre8PX-87" value="" style="edgeStyle=orthogonalEdgeStyle;rounded=0;orthogonalLoop=1;jettySize=auto;html=1;endArrow=none;endFill=0;strokeColor=#FFFFFF;" parent="07htjKUWKZQOqNFre8PX-1" source="07htjKUWKZQOqNFre8PX-88" target="07htjKUWKZQOqNFre8PX-96" edge="1">
                    <mxGeometry relative="1" as="geometry"/>
                </mxCell>
                <mxCell id="07htjKUWKZQOqNFre8PX-88" value="&lt;b&gt;GUARDIAN&lt;/b&gt;" style="whiteSpace=wrap;html=1;align=center;strokeColor=#FFFFFF;" parent="07htjKUWKZQOqNFre8PX-1" vertex="1">
                    <mxGeometry x="200" y="880" width="100" height="40" as="geometry"/>
                </mxCell>
                <mxCell id="07htjKUWKZQOqNFre8PX-89" value="&lt;b&gt;RegNo&lt;/b&gt;" style="ellipse;whiteSpace=wrap;html=1;align=center;fontStyle=4;strokeColor=#FFFFFF;" parent="07htjKUWKZQOqNFre8PX-1" vertex="1">
                    <mxGeometry x="300" y="830" width="100" height="40" as="geometry"/>
                </mxCell>
                <mxCell id="07htjKUWKZQOqNFre8PX-90" style="edgeStyle=orthogonalEdgeStyle;rounded=0;orthogonalLoop=1;jettySize=auto;html=1;endArrow=none;endFill=0;exitX=0;exitY=0.5;exitDx=0;exitDy=0;entryX=0.5;entryY=0;entryDx=0;entryDy=0;strokeColor=#FFFFFF;" parent="07htjKUWKZQOqNFre8PX-1" source="07htjKUWKZQOqNFre8PX-91" target="07htjKUWKZQOqNFre8PX-88" edge="1">
                    <mxGeometry relative="1" as="geometry">
                        <mxPoint x="160" y="880" as="targetPoint"/>
                    </mxGeometry>
                </mxCell>
                <mxCell id="07htjKUWKZQOqNFre8PX-91" value="&lt;b&gt;FirstName&lt;/b&gt;" style="ellipse;whiteSpace=wrap;html=1;align=center;strokeColor=#FFFFFF;" parent="07htjKUWKZQOqNFre8PX-1" vertex="1">
                    <mxGeometry x="270" y="780" width="100" height="40" as="geometry"/>
                </mxCell>
                <mxCell id="07htjKUWKZQOqNFre8PX-92" style="edgeStyle=orthogonalEdgeStyle;rounded=0;orthogonalLoop=1;jettySize=auto;html=1;entryX=0.5;entryY=0;entryDx=0;entryDy=0;endArrow=none;endFill=0;exitX=1;exitY=0.5;exitDx=0;exitDy=0;strokeColor=#FFFFFF;" parent="07htjKUWKZQOqNFre8PX-1" source="07htjKUWKZQOqNFre8PX-93" target="07htjKUWKZQOqNFre8PX-88" edge="1">
                    <mxGeometry relative="1" as="geometry"/>
                </mxCell>
                <mxCell id="07htjKUWKZQOqNFre8PX-93" value="&lt;b&gt;LastName&lt;/b&gt;" style="ellipse;whiteSpace=wrap;html=1;align=center;strokeColor=#FFFFFF;" parent="07htjKUWKZQOqNFre8PX-1" vertex="1">
                    <mxGeometry x="120" y="790" width="100" height="40" as="geometry"/>
                </mxCell>
                <mxCell id="07htjKUWKZQOqNFre8PX-94" style="edgeStyle=orthogonalEdgeStyle;rounded=0;orthogonalLoop=1;jettySize=auto;html=1;entryX=0.5;entryY=0;entryDx=0;entryDy=0;endArrow=none;endFill=0;exitX=0.5;exitY=1;exitDx=0;exitDy=0;strokeColor=#FFFFFF;" parent="07htjKUWKZQOqNFre8PX-1" source="07htjKUWKZQOqNFre8PX-95" target="07htjKUWKZQOqNFre8PX-88" edge="1">
                    <mxGeometry relative="1" as="geometry"/>
                </mxCell>
                <mxCell id="07htjKUWKZQOqNFre8PX-95" value="&lt;b&gt;MiddleName&lt;/b&gt;" style="ellipse;whiteSpace=wrap;html=1;align=center;strokeColor=#FFFFFF;" parent="07htjKUWKZQOqNFre8PX-1" vertex="1">
                    <mxGeometry x="200" y="740" width="100" height="40" as="geometry"/>
                </mxCell>
                <mxCell id="07htjKUWKZQOqNFre8PX-96" value="&lt;b&gt;Mobile&lt;/b&gt;" style="ellipse;whiteSpace=wrap;html=1;align=center;strokeColor=#FFFFFF;" parent="07htjKUWKZQOqNFre8PX-1" vertex="1">
                    <mxGeometry x="260" y="960" width="100" height="40" as="geometry"/>
                </mxCell>
                <mxCell id="07htjKUWKZQOqNFre8PX-97" value="" style="edgeStyle=orthogonalEdgeStyle;rounded=0;orthogonalLoop=1;jettySize=auto;html=1;endArrow=none;endFill=0;strokeColor=#FFFFFF;" parent="07htjKUWKZQOqNFre8PX-1" source="07htjKUWKZQOqNFre8PX-98" target="07htjKUWKZQOqNFre8PX-88" edge="1">
                    <mxGeometry relative="1" as="geometry"/>
                </mxCell>
                <mxCell id="07htjKUWKZQOqNFre8PX-98" value="&lt;b&gt;Address&lt;/b&gt;" style="ellipse;whiteSpace=wrap;html=1;align=center;strokeColor=#FFFFFF;" parent="07htjKUWKZQOqNFre8PX-1" vertex="1">
                    <mxGeometry x="150" y="960" width="100" height="40" as="geometry"/>
                </mxCell>
                <mxCell id="07htjKUWKZQOqNFre8PX-99" value="" style="edgeStyle=orthogonalEdgeStyle;rounded=0;orthogonalLoop=1;jettySize=auto;html=1;endArrow=none;endFill=0;entryX=0;entryY=0.5;entryDx=0;entryDy=0;exitX=1;exitY=0.5;exitDx=0;exitDy=0;strokeColor=#FFFFFF;" parent="07htjKUWKZQOqNFre8PX-1" source="07htjKUWKZQOqNFre8PX-100" target="07htjKUWKZQOqNFre8PX-88" edge="1">
                    <mxGeometry relative="1" as="geometry"/>
                </mxCell>
                <mxCell id="07htjKUWKZQOqNFre8PX-100" value="&lt;b&gt;Occupation&lt;/b&gt;" style="ellipse;whiteSpace=wrap;html=1;align=center;strokeColor=#FFFFFF;" parent="07htjKUWKZQOqNFre8PX-1" vertex="1">
                    <mxGeometry x="60" y="880" width="100" height="40" as="geometry"/>
                </mxCell>
                <mxCell id="07htjKUWKZQOqNFre8PX-101" value="" style="edgeStyle=orthogonalEdgeStyle;rounded=0;orthogonalLoop=1;jettySize=auto;html=1;endArrow=none;endFill=0;strokeColor=#FFFFFF;" parent="07htjKUWKZQOqNFre8PX-1" source="07htjKUWKZQOqNFre8PX-103" target="07htjKUWKZQOqNFre8PX-115" edge="1">
                    <mxGeometry relative="1" as="geometry"/>
                </mxCell>
                <mxCell id="07htjKUWKZQOqNFre8PX-102" style="edgeStyle=orthogonalEdgeStyle;rounded=0;orthogonalLoop=1;jettySize=auto;html=1;endArrow=none;endFill=0;strokeColor=#FFFFFF;" parent="07htjKUWKZQOqNFre8PX-1" source="07htjKUWKZQOqNFre8PX-103" target="07htjKUWKZQOqNFre8PX-114" edge="1">
                    <mxGeometry relative="1" as="geometry"/>
                </mxCell>
                <mxCell id="07htjKUWKZQOqNFre8PX-103" value="&lt;b&gt;SPOUSE&lt;/b&gt;" style="whiteSpace=wrap;html=1;align=center;strokeColor=#FFFFFF;" parent="07htjKUWKZQOqNFre8PX-1" vertex="1">
                    <mxGeometry x="580" y="880" width="100" height="40" as="geometry"/>
                </mxCell>
                <mxCell id="07htjKUWKZQOqNFre8PX-104" style="edgeStyle=orthogonalEdgeStyle;rounded=0;orthogonalLoop=1;jettySize=auto;html=1;entryX=0.5;entryY=0;entryDx=0;entryDy=0;endArrow=none;endFill=0;exitX=1;exitY=0.5;exitDx=0;exitDy=0;strokeColor=#FFFFFF;" parent="07htjKUWKZQOqNFre8PX-1" source="07htjKUWKZQOqNFre8PX-105" target="07htjKUWKZQOqNFre8PX-103" edge="1">
                    <mxGeometry relative="1" as="geometry"/>
                </mxCell>
                <mxCell id="07htjKUWKZQOqNFre8PX-105" value="&lt;b&gt;RegNo&lt;/b&gt;" style="ellipse;whiteSpace=wrap;html=1;align=center;fontStyle=4;strokeColor=#FFFFFF;" parent="07htjKUWKZQOqNFre8PX-1" vertex="1">
                    <mxGeometry x="470" y="750" width="100" height="40" as="geometry"/>
                </mxCell>
                <mxCell id="07htjKUWKZQOqNFre8PX-106" style="edgeStyle=orthogonalEdgeStyle;rounded=0;orthogonalLoop=1;jettySize=auto;html=1;entryX=0.5;entryY=0;entryDx=0;entryDy=0;endArrow=none;endFill=0;exitX=0;exitY=0.5;exitDx=0;exitDy=0;strokeColor=#FFFFFF;" parent="07htjKUWKZQOqNFre8PX-1" source="07htjKUWKZQOqNFre8PX-107" target="07htjKUWKZQOqNFre8PX-103" edge="1">
                    <mxGeometry relative="1" as="geometry"/>
                </mxCell>
                <mxCell id="07htjKUWKZQOqNFre8PX-107" value="&lt;b&gt;FirstName&lt;/b&gt;" style="ellipse;whiteSpace=wrap;html=1;align=center;strokeColor=#FFFFFF;" parent="07htjKUWKZQOqNFre8PX-1" vertex="1">
                    <mxGeometry x="660" y="730" width="100" height="40" as="geometry"/>
                </mxCell>
                <mxCell id="07htjKUWKZQOqNFre8PX-108" style="edgeStyle=orthogonalEdgeStyle;rounded=0;orthogonalLoop=1;jettySize=auto;html=1;endArrow=none;endFill=0;exitX=0;exitY=0.5;exitDx=0;exitDy=0;strokeColor=#FFFFFF;" parent="07htjKUWKZQOqNFre8PX-1" source="07htjKUWKZQOqNFre8PX-109" edge="1">
                    <mxGeometry relative="1" as="geometry">
                        <mxPoint x="630" y="870" as="targetPoint"/>
                    </mxGeometry>
                </mxCell>
                <mxCell id="07htjKUWKZQOqNFre8PX-109" value="&lt;b&gt;MiddleName&lt;/b&gt;" style="ellipse;whiteSpace=wrap;html=1;align=center;strokeColor=#FFFFFF;" parent="07htjKUWKZQOqNFre8PX-1" vertex="1">
                    <mxGeometry x="740" y="780" width="100" height="40" as="geometry"/>
                </mxCell>
                <mxCell id="07htjKUWKZQOqNFre8PX-110" style="edgeStyle=orthogonalEdgeStyle;rounded=0;orthogonalLoop=1;jettySize=auto;html=1;endArrow=none;endFill=0;exitX=0;exitY=0.5;exitDx=0;exitDy=0;entryX=0.5;entryY=0;entryDx=0;entryDy=0;strokeColor=#FFFFFF;" parent="07htjKUWKZQOqNFre8PX-1" source="07htjKUWKZQOqNFre8PX-111" target="07htjKUWKZQOqNFre8PX-103" edge="1">
                    <mxGeometry relative="1" as="geometry">
                        <mxPoint x="630" y="890" as="targetPoint"/>
                    </mxGeometry>
                </mxCell>
                <mxCell id="07htjKUWKZQOqNFre8PX-111" value="&lt;b&gt;LastName&lt;/b&gt;" style="ellipse;whiteSpace=wrap;html=1;align=center;strokeColor=#FFFFFF;" parent="07htjKUWKZQOqNFre8PX-1" vertex="1">
                    <mxGeometry x="750" y="830" width="100" height="40" as="geometry"/>
                </mxCell>
                <mxCell id="07htjKUWKZQOqNFre8PX-112" style="edgeStyle=orthogonalEdgeStyle;rounded=0;orthogonalLoop=1;jettySize=auto;html=1;entryX=1;entryY=0.5;entryDx=0;entryDy=0;endArrow=none;endFill=0;exitX=0;exitY=0.5;exitDx=0;exitDy=0;strokeColor=#FFFFFF;" parent="07htjKUWKZQOqNFre8PX-1" source="07htjKUWKZQOqNFre8PX-113" target="07htjKUWKZQOqNFre8PX-103" edge="1">
                    <mxGeometry relative="1" as="geometry"/>
                </mxCell>
                <mxCell id="07htjKUWKZQOqNFre8PX-113" value="&lt;b&gt;Occupation&lt;/b&gt;" style="ellipse;whiteSpace=wrap;html=1;align=center;strokeColor=#FFFFFF;" parent="07htjKUWKZQOqNFre8PX-1" vertex="1">
                    <mxGeometry x="770" y="880" width="100" height="40" as="geometry"/>
                </mxCell>
                <mxCell id="07htjKUWKZQOqNFre8PX-114" value="&lt;b&gt;Address&lt;/b&gt;" style="ellipse;whiteSpace=wrap;html=1;align=center;strokeColor=#FFFFFF;" parent="07htjKUWKZQOqNFre8PX-1" vertex="1">
                    <mxGeometry x="520" y="960" width="100" height="40" as="geometry"/>
                </mxCell>
                <mxCell id="07htjKUWKZQOqNFre8PX-115" value="&lt;b&gt;Mobile&lt;/b&gt;" style="ellipse;whiteSpace=wrap;html=1;align=center;strokeColor=#FFFFFF;" parent="07htjKUWKZQOqNFre8PX-1" vertex="1">
                    <mxGeometry x="660" y="960" width="100" height="40" as="geometry"/>
                </mxCell>
                <mxCell id="PeYRBsqGOsVecDRt46Dp-0" value="&lt;b&gt;PermanentAddress&lt;/b&gt;" style="ellipse;whiteSpace=wrap;html=1;align=center;strokeColor=#FFFFFF;" parent="07htjKUWKZQOqNFre8PX-1" vertex="1">
                    <mxGeometry x="30" y="200" width="130" height="40" as="geometry"/>
                </mxCell>
                <mxCell id="PeYRBsqGOsVecDRt46Dp-1" value="&lt;b&gt;TemporaryAddress&lt;/b&gt;" style="ellipse;whiteSpace=wrap;html=1;align=center;strokeColor=#FFFFFF;" parent="07htjKUWKZQOqNFre8PX-1" vertex="1">
                    <mxGeometry x="30" y="250" width="130" height="40" as="geometry"/>
                </mxCell>
                <mxCell id="PeYRBsqGOsVecDRt46Dp-2" style="edgeStyle=orthogonalEdgeStyle;rounded=0;orthogonalLoop=1;jettySize=auto;html=1;entryX=1;entryY=0.5;entryDx=0;entryDy=0;endArrow=none;endFill=0;strokeColor=#FFFFFF;" parent="07htjKUWKZQOqNFre8PX-1" target="PeYRBsqGOsVecDRt46Dp-1" edge="1">
                    <mxGeometry relative="1" as="geometry">
                        <mxPoint x="240" y="220" as="sourcePoint"/>
                        <mxPoint x="170" y="230" as="targetPoint"/>
                    </mxGeometry>
                </mxCell>
                <mxCell id="slVFg1UZRjtUepQdzBgp-0" value="&lt;b&gt;CreatedAt&lt;/b&gt;" style="ellipse;whiteSpace=wrap;html=1;align=center;strokeColor=#FFFFFF;" parent="07htjKUWKZQOqNFre8PX-1" vertex="1">
                    <mxGeometry x="320" y="290" width="100" height="40" as="geometry"/>
                </mxCell>
                <mxCell id="slVFg1UZRjtUepQdzBgp-1" style="edgeStyle=orthogonalEdgeStyle;rounded=0;orthogonalLoop=1;jettySize=auto;html=1;endArrow=none;endFill=0;exitX=0.5;exitY=1;exitDx=0;exitDy=0;entryX=0.5;entryY=0;entryDx=0;entryDy=0;strokeColor=#FFFFFF;" parent="07htjKUWKZQOqNFre8PX-1" source="07htjKUWKZQOqNFre8PX-35" target="slVFg1UZRjtUepQdzBgp-0" edge="1">
                    <mxGeometry relative="1" as="geometry">
                        <mxPoint x="430" y="360" as="sourcePoint"/>
                        <mxPoint x="360" y="410" as="targetPoint"/>
                    </mxGeometry>
                </mxCell>
            </root>
        </mxGraphModel>
    </diagram>
</mxfile>